<?xml version="1.0" encoding="utf-8"?>
<!-- Generator: Adobe Illustrator 16.0.0, SVG Export Plug-In . SVG Version: 6.00 Build 0)  -->
<!DOCTYPE svg PUBLIC "-//W3C//DTD SVG 1.1//EN" "http://www.w3.org/Graphics/SVG/1.1/DTD/svg11.dtd">
<svg version="1.1" id="Capa_1" xmlns="http://www.w3.org/2000/svg" xmlns:xlink="http://www.w3.org/1999/xlink" x="0px" y="0px"
	 width="224.015px" height="52.51px" viewBox="0 0 224.015 52.51" enable-background="new 0 0 224.015 52.51" xml:space="preserve">
<g>
	<g>
		<path fill="#DFE6B7" d="M25.375,5.947L23.403,7.4c-1.237-1.615-2.688-2.854-4.354-3.718s-3.373-1.295-5.122-1.295
			c-1.961,0-3.844,0.526-5.648,1.579C6.474,5.02,5.056,6.418,4.026,8.161C2.995,9.905,2.48,11.773,2.48,13.768
			c0,2.708,0.966,5.012,2.899,6.911s4.287,2.849,7.061,2.849c1.66,0,3.253-0.34,4.779-1.02c1.526-0.679,2.763-1.581,3.71-2.707
			c0.947-1.125,1.638-2.518,2.072-4.178h-9.008V13.2H25.96c-0.246,3.766-1.596,6.818-4.053,9.157c-2.457,2.34-5.518,3.51-9.183,3.51
			c-3.766,0-6.824-1.142-9.175-3.426c-2.351-2.284-3.526-5.152-3.526-8.606c0-2.462,0.618-4.76,1.855-6.894s2.938-3.816,5.105-5.047
			c2.167-1.231,4.504-1.847,7.011-1.847C18.529,0.048,22.323,2.014,25.375,5.947z"/>
		<path fill="#DFE6B7" d="M47.201,25.249h-2.357l0.359-2.733c-2.101,2.134-4.505,3.201-7.212,3.201c-2.463,0-4.488-0.796-6.075-2.39
			c-1.587-1.593-2.38-3.644-2.38-6.15c0-2.896,1.034-5.384,3.103-7.461c2.069-2.078,4.503-3.117,7.302-3.117
			c1.517,0,2.846,0.317,3.989,0.951s2.105,1.624,2.884,2.97l0.42-3.453h2.425L47.201,25.249z M38.252,23.578
			c1.499,0,2.864-0.354,4.096-1.063s2.209-1.726,2.93-3.053c0.721-1.326,1.082-2.771,1.082-4.331c0-1.881-0.594-3.411-1.781-4.591
			s-2.73-1.77-4.628-1.77c-2.231,0-4.14,0.808-5.728,2.423c-1.587,1.615-2.38,3.599-2.38,5.949c0,1.928,0.594,3.482,1.781,4.663
			S36.354,23.578,38.252,23.578z"/>
		<path fill="#DFE6B7" d="M54.123,7.066h2.344L56.15,9.354c0.625-0.868,1.377-1.545,2.259-2.029c0.881-0.484,1.785-0.727,2.71-0.727
			c0.658,0,1.344,0.156,2.058,0.468l-1.103,2.14c-0.579-0.234-1.063-0.352-1.452-0.352c-0.812,0-1.616,0.284-2.411,0.853
			s-1.44,1.396-1.935,2.482c-0.495,1.087-0.914,2.873-1.257,5.357l-1.063,7.702h-2.293L54.123,7.066z"/>
		<path fill="#DFE6B7" d="M80.925,25.249h-2.357l0.374-2.818c-2.156,2.191-4.583,3.286-7.278,3.286c-2.453,0-4.469-0.796-6.049-2.39
			c-1.58-1.593-2.37-3.644-2.37-6.15c0-2.896,1.03-5.384,3.091-7.461c2.061-2.078,4.485-3.117,7.273-3.117
			c1.511,0,2.835,0.317,3.974,0.953c1.138,0.635,2.118,1.627,2.937,2.976l1.39-10.479h2.425L80.925,25.249z M71.971,23.578
			c1.501,0,2.869-0.354,4.103-1.061c1.234-0.708,2.212-1.724,2.936-3.049c0.723-1.325,1.084-2.767,1.084-4.326
			c0-1.884-0.595-3.417-1.785-4.599c-1.189-1.182-2.735-1.772-4.636-1.772c-2.235,0-4.147,0.808-5.737,2.423
			c-1.59,1.615-2.385,3.599-2.385,5.949c0,1.928,0.595,3.482,1.785,4.663C68.524,22.987,70.07,23.578,71.971,23.578z"/>
		<path fill="#DFE6B7" d="M105.141,16.626H88.93c-0.033,2.161,0.529,3.86,1.688,5.097c1.159,1.237,2.702,1.855,4.629,1.855
			c1.281,0,2.467-0.262,3.56-0.786c1.092-0.523,1.994-1.259,2.707-2.206l1.738,1.421c-0.88,1.126-2.031,2.025-3.451,2.699
			s-2.955,1.011-4.604,1.011c-2.852,0-4.994-0.883-6.426-2.648s-2.147-3.752-2.147-5.958c0-1.805,0.482-3.543,1.446-5.214
			c0.963-1.672,2.253-2.972,3.869-3.902c1.615-0.931,3.365-1.396,5.248-1.396c2.328,0,4.256,0.788,5.782,2.364
			c1.526,1.577,2.29,3.585,2.29,6.025C105.258,15.434,105.219,15.979,105.141,16.626z M103.001,14.587
			c-0.067-1.711-0.651-3.097-1.754-4.157c-1.103-1.062-2.49-1.592-4.162-1.592c-1.816,0-3.417,0.511-4.804,1.533
			c-1.387,1.022-2.371,2.428-2.95,4.216H103.001z"/>
		<path fill="#DFE6B7" d="M111.043,7.066h2.242l-0.373,2.829c1.848-2.198,3.998-3.297,6.451-3.297c1.883,0,3.4,0.576,4.555,1.729
			c1.152,1.152,1.73,2.703,1.73,4.652c0,0.779-0.125,2.089-0.375,3.929l-1.127,8.34h-2.293l1.127-8.339
			c0.242-1.782,0.363-3.099,0.363-3.948c0-1.273-0.387-2.302-1.158-3.084s-1.785-1.174-3.037-1.174c-1.23,0-2.375,0.317-3.432,0.953
			c-1.059,0.635-1.877,1.495-2.459,2.581s-1.027,2.805-1.34,5.154l-1.041,7.856h-2.293L111.043,7.066z"/>
		<path fill="#DFE6B7" d="M142.374,0.666h2.423l-1.345,9.993h12.603l1.358-9.993h2.392l-3.325,24.583h-2.407l1.667-12.267h-12.633
			l-1.617,12.267h-2.44L142.374,0.666z"/>
		<path fill="#DFE6B7" d="M172.991,6.599c1.548,0,2.969,0.37,4.262,1.111c1.292,0.741,2.3,1.771,3.024,3.092
			c0.724,1.32,1.086,2.815,1.086,4.487c0,1.905-0.462,3.674-1.387,5.306c-0.925,1.633-2.167,2.895-3.727,3.785
			c-1.561,0.892-3.326,1.337-5.298,1.337c-2.439,0-4.448-0.799-6.024-2.398c-1.577-1.598-2.365-3.635-2.365-6.107
			c0-1.938,0.463-3.727,1.388-5.365c0.925-1.638,2.191-2.921,3.802-3.852C169.361,7.063,171.108,6.599,172.991,6.599z
			 M172.933,8.821c-1.45,0-2.813,0.362-4.091,1.086c-1.277,0.725-2.259,1.719-2.945,2.983c-0.686,1.265-1.028,2.66-1.028,4.187
			c0,1.916,0.591,3.474,1.773,4.671s2.711,1.796,4.585,1.796c1.461,0,2.785-0.348,3.973-1.044c1.188-0.696,2.134-1.702,2.837-3.017
			c0.702-1.314,1.054-2.724,1.054-4.229c0-1.259-0.262-2.375-0.786-3.351c-0.524-0.975-1.267-1.732-2.226-2.272
			S174.071,8.821,172.933,8.821z"/>
		<path fill="#DFE6B7" d="M190.057,0.265h2.289l-0.906,6.802h3.661l-0.268,2.039h-3.665l-2.151,16.144h-2.339l2.184-16.144h-3.119
			l0.283-2.039h3.111L190.057,0.265z"/>
		<path fill="#DFE6B7" d="M215.122,16.626h-16.211c-0.033,2.161,0.529,3.86,1.688,5.097c1.158,1.237,2.701,1.855,4.629,1.855
			c1.281,0,2.468-0.262,3.56-0.786c1.092-0.523,1.994-1.259,2.707-2.206l1.738,1.421c-0.88,1.126-2.03,2.025-3.451,2.699
			s-2.955,1.011-4.604,1.011c-2.852,0-4.994-0.883-6.425-2.648c-1.433-1.766-2.147-3.752-2.147-5.958
			c0-1.805,0.481-3.543,1.445-5.214c0.963-1.672,2.253-2.972,3.868-3.902c1.616-0.931,3.365-1.396,5.248-1.396
			c2.328,0,4.256,0.788,5.782,2.364c1.526,1.577,2.289,3.585,2.289,6.025C215.238,15.434,215.199,15.979,215.122,16.626z
			 M212.982,14.587c-0.066-1.711-0.651-3.097-1.755-4.157c-1.103-1.062-2.489-1.592-4.161-1.592c-1.815,0-3.417,0.511-4.805,1.533
			c-1.387,1.022-2.37,2.428-2.949,4.216H212.982z"/>
		<path fill="#DFE6B7" d="M221.521,0.048h2.276l-3.392,25.201h-2.293L221.521,0.048z"/>
	</g>
	<g>
		<polygon fill="#BCD7A2" points="85.297,39.406 87.428,43.719 92.189,44.411 88.744,47.768 89.556,52.51 85.297,50.273 
			81.041,52.51 81.853,47.768 78.408,44.411 83.169,43.719 		"/>
		<polygon fill="#BCD7A2" points="102.904,39.406 105.035,43.719 109.795,44.411 106.351,47.768 107.163,52.51 102.904,50.273 
			98.648,52.51 99.459,47.768 96.015,44.411 100.776,43.719 		"/>
		<polygon fill="#BCD7A2" points="120.509,39.406 122.64,43.719 127.402,44.411 123.957,47.768 124.769,52.51 120.509,50.273 
			116.254,52.51 117.067,47.768 113.623,44.411 118.382,43.719 		"/>
		<polygon fill="#BCD7A2" points="138.116,39.406 140.247,43.719 145.008,44.411 141.563,47.768 142.376,52.51 138.116,50.273 
			133.861,52.51 134.674,47.768 131.229,44.411 135.99,43.719 		"/>
	</g>
</g>
</svg>
