<?xml version="1.0" encoding="utf-8"?>
<!-- Generator: Adobe Illustrator 16.0.0, SVG Export Plug-In . SVG Version: 6.00 Build 0)  -->
<!DOCTYPE svg PUBLIC "-//W3C//DTD SVG 1.1//EN" "http://www.w3.org/Graphics/SVG/1.1/DTD/svg11.dtd">
<svg version="1.1" id="Capa_1" xmlns="http://www.w3.org/2000/svg" xmlns:xlink="http://www.w3.org/1999/xlink" x="0px" y="0px"
	 width="118.277px" height="230.195px" viewBox="0 0 118.277 230.195" enable-background="new 0 0 118.277 230.195"
	 xml:space="preserve">
<path fill="#002D23" d="M118.277,230.195V0C52.651,1.692,0,52.574,0,115.098S52.651,228.502,118.277,230.195z"/>
<path fill="none" stroke="#DEE5B6" stroke-width="1.0067" stroke-miterlimit="10" d="M118.277,5.258
	c-7.384,0.698-14.575,1.962-21.518,3.744C44.677,22.366,6.61,64.806,6.61,115.098c0,55.07,45.642,100.726,105.353,109.099
	c2.09,0.293,4.197,0.541,6.32,0.741"/>
<text transform="matrix(0 -1 1 0 94.0918 200.7617)"><tspan x="0" y="0" fill="#DEE5B6" font-family="'Century Gothic'" font-size="16">SISTEMA DE </tspan><tspan x="93.219" y="0" fill="#DEE5B6" font-family="'Century Gothic'" font-size="16">RESERVAS</tspan></text>
<g>
	<path fill="#DEE5B6" d="M66.014,98.41c1.292,1.292,1.289,3.391,0,4.683l-1.562,1.561l-4.684-4.684l1.562-1.56
		C62.623,97.118,64.719,97.117,66.014,98.41z M42.603,117.139l-1.56,6.242l6.242-1.56l15.606-15.607l-4.685-4.683L42.603,117.139z
		 M58.154,114.074v14.267H36.082v-22.072H50.35l4.414-4.415H31.668v30.901h30.9v-23.097L58.154,114.074z"/>
</g>
<rect x="118.277" y="-5.764" fill="none" width="34.833" height="268"/>
</svg>
