<?xml version="1.0" encoding="utf-8"?>
<!-- Generator: Adobe Illustrator 15.0.2, SVG Export Plug-In . SVG Version: 6.00 Build 0)  -->
<!DOCTYPE svg PUBLIC "-//W3C//DTD SVG 1.1//EN" "http://www.w3.org/Graphics/SVG/1.1/DTD/svg11.dtd">
<svg version="1.1" id="Capa_1" xmlns="http://www.w3.org/2000/svg" xmlns:xlink="http://www.w3.org/1999/xlink" x="0px" y="0px"
	 width="64px" height="64px" viewBox="0 0 64 64" enable-background="new 0 0 64 64" xml:space="preserve" fill="#FFF">
<g>
	<g>
		<path d="M63.321,40.655l-3.358-5.741V15.067c0-2.556-2.081-4.64-4.639-4.64c-1.306,0-2.489,0.543-3.332,1.415
			c-0.844-0.872-2.026-1.415-3.331-1.415c-1.308,0-2.489,0.543-3.335,1.415c-0.841-0.872-2.024-1.415-3.33-1.415
			s-2.487,0.543-3.332,1.415c-0.845-0.872-2.025-1.415-3.332-1.415c-1.308,0-2.49,0.543-3.333,1.415
			c-0.844-0.872-2.026-1.415-3.332-1.415c-1.307,0-2.488,0.543-3.331,1.415c-0.846-0.872-2.026-1.415-3.332-1.415
			c-1.307,0-2.489,0.543-3.333,1.415c-0.844-0.872-2.026-1.415-3.333-1.415c-1.306,0-2.486,0.543-3.331,1.415
			c-0.843-0.872-2.025-1.415-3.332-1.415c-2.558,0-4.638,2.084-4.638,4.64v19.847l-3.359,5.741
			c-0.184,0.313-0.225,0.683-0.127,1.023l0.762,7.925c0.217,2.262,2.096,3.969,4.371,3.969h2.465c0.722,0,1.307-0.583,1.307-1.306
			v-1.79h45.086v1.79c0,0.723,0.585,1.306,1.308,1.306h2.467c2.273,0,4.152-1.707,4.369-3.969l0.763-7.925
			C63.547,41.338,63.506,40.968,63.321,40.655 M11.729,25.813c0-1.667,1.357-3.022,3.023-3.022h11.351
			c1.923,0,3.485,1.563,3.485,3.485v0.706c0,1.92-1.563,3.484-3.485,3.484H15.214c-1.923,0-3.485-1.564-3.485-3.484V25.813z
			 M34.411,25.813c0-1.667,1.356-3.022,3.023-3.022h11.351c1.923,0,3.485,1.563,3.485,3.485v0.706c0,1.92-1.563,3.484-3.485,3.484
			H37.896c-1.923,0-3.485-1.564-3.485-3.484V25.813z M4.084,40.007l5.803-9.913h0.091c1.065,1.785,3.011,2.988,5.236,2.988h10.889
			c2.226,0,4.172-1.203,5.237-2.988h1.318c1.066,1.785,3.012,2.988,5.238,2.988h10.889c2.226,0,4.172-1.203,5.234-2.988h0.092
			l5.805,9.913H4.084z"/>
	</g>
</g>
</svg>
