<?xml version="1.0" encoding="utf-8"?>
<!-- Generator: Adobe Illustrator 15.0.2, SVG Export Plug-In . SVG Version: 6.00 Build 0)  -->
<!DOCTYPE svg PUBLIC "-//W3C//DTD SVG 1.1//EN" "http://www.w3.org/Graphics/SVG/1.1/DTD/svg11.dtd">
<svg version="1.1" id="Capa_1" xmlns="http://www.w3.org/2000/svg" xmlns:xlink="http://www.w3.org/1999/xlink" x="0px" y="0px"
	 width="64px" height="64px" viewBox="0 0 64 64" enable-background="new 0 0 64 64" xml:space="preserve">
<g>
	<path d="M63.374,40.553l-6.935-10.98V9.377l-2.823-2.823H10.385L7.562,9.377v20.195l-6.935,10.98H63.374z M50.794,12.2v14.093
		C47.156,25.352,40.871,24.19,32,24.19c-8.87,0-15.154,1.162-18.793,2.103V12.2H50.794z"/>
	<polygon points="0.5,44.027 0.5,49.672 7.079,49.672 7.079,57.446 12.725,57.446 12.725,49.672 51.276,49.672 51.276,57.446 
		56.924,57.446 56.924,49.672 63.5,49.672 63.5,44.027 	"/>
	<path d="M29.708,21.253v-3.29c0-1.952-2.832-3.535-6.327-3.535c-3.494,0-6.327,1.583-6.327,3.535v4.938c0,0,3.732-0.94,6.299-1.184
		C25.661,21.499,29.708,21.253,29.708,21.253z"/>
	<path d="M46.948,22.901v-4.938c0-1.952-2.834-3.535-6.328-3.535c-3.495,0-6.329,1.583-6.329,3.535v3.29
		c0,0,4.049,0.246,6.359,0.464C43.215,21.961,46.948,22.901,46.948,22.901z"/>
</g>
</svg>
