<?xml version="1.0" encoding="utf-8"?>
<!-- Generator: Adobe Illustrator 15.0.2, SVG Export Plug-In . SVG Version: 6.00 Build 0)  -->
<!DOCTYPE svg PUBLIC "-//W3C//DTD SVG 1.1//EN" "http://www.w3.org/Graphics/SVG/1.1/DTD/svg11.dtd">
<svg version="1.1" id="Capa_1" xmlns="http://www.w3.org/2000/svg" xmlns:xlink="http://www.w3.org/1999/xlink" x="0px" y="0px"
	 width="64px" height="64px" viewBox="0 0 64 64" enable-background="new 0 0 64 64" xml:space="preserve">
<g>
	<g>
		<path d="M32,63.999C14.355,63.999,0,49.645,0,32S14.355,0.001,32,0.001S64,14.355,64,32S49.645,63.999,32,63.999z M32,2.53
			C15.75,2.53,2.53,15.75,2.53,32S15.75,61.469,32,61.469S61.469,48.25,61.469,32S48.25,2.53,32,2.53z"/>
	</g>
	<g>
		<polygon points="32,33.27 18.675,23.106 45.319,23.106 		"/>
		<polygon points="32,36.13 18.657,25.837 18.657,40.894 45.34,40.894 45.34,25.837 		"/>
	</g>
</g>
</svg>
