<?xml version="1.0" encoding="utf-8"?>
<!-- Generator: Adobe Illustrator 15.0.2, SVG Export Plug-In . SVG Version: 6.00 Build 0)  -->
<!DOCTYPE svg PUBLIC "-//W3C//DTD SVG 1.1//EN" "http://www.w3.org/Graphics/SVG/1.1/DTD/svg11.dtd">
<svg version="1.1" id="Capa_1" xmlns="http://www.w3.org/2000/svg" xmlns:xlink="http://www.w3.org/1999/xlink" x="0px" y="0px"
	 width="64px" height="64px" viewBox="0 0 64 64" enable-background="new 0 0 64 64" xml:space="preserve" fill="#bcd7a2">
<g>
	<g>
		<path d="M31.971,63.499c-16.536,0-30.33-12.938-31.404-29.454C-0.56,16.714,12.624,1.696,29.957,0.566
			c17.423-1.119,32.356,12.186,33.476,29.39c1.126,17.332-12.057,32.349-29.388,33.477C33.35,63.478,32.658,63.499,31.971,63.499z
			 M32.029,2.989c-0.633,0-1.271,0.021-1.912,0.063C14.156,4.091,2.014,17.921,3.052,33.883
			c1.03,15.844,14.778,28.124,30.832,27.064c15.961-1.038,28.102-14.867,27.063-30.83C59.958,14.905,47.256,2.989,32.029,2.989z"/>
	</g>
	<path d="M32.001,18.001c-6.442,0-11.668,5.125-11.668,11.449c0,6.425,5.105,10.813,11.668,16.549
		c6.561-5.736,11.666-10.124,11.666-16.549C43.667,23.126,38.44,18.001,32.001,18.001 M32.001,38.999
		c-5.156,0-9.335-4.179-9.335-9.332c0-5.156,4.179-9.332,9.335-9.332c5.154,0,9.331,4.176,9.331,9.332
		C41.332,34.82,37.155,38.999,32.001,38.999"/>
</g>
</svg>
