<?xml version="1.0" encoding="utf-8"?>
<!-- Generator: Adobe Illustrator 15.0.2, SVG Export Plug-In . SVG Version: 6.00 Build 0)  -->
<!DOCTYPE svg PUBLIC "-//W3C//DTD SVG 1.1//EN" "http://www.w3.org/Graphics/SVG/1.1/DTD/svg11.dtd">
<svg version="1.1" id="Capa_1" xmlns="http://www.w3.org/2000/svg" xmlns:xlink="http://www.w3.org/1999/xlink" x="0px" y="0px"
	 width="64px" height="64px" viewBox="0 0 64 64" enable-background="new 0 0 64 64" xml:space="preserve" fill="#fff">
<g>
	<g>
		<polygon points="16.25,40.4 9.949,40.4 9.949,30.95 6.8,30.95 6.8,42.5 16.25,42.5 		"/>
		<path d="M21.573,43.275c1.561,0,2.724-0.475,3.489-1.42c0.767-0.945,1.149-2.084,1.149-3.414c0-1.311-0.383-2.445-1.149-3.404
			s-1.93-1.439-3.489-1.439c-1.561,0-2.724,0.48-3.489,1.439c-0.767,0.963-1.149,2.096-1.149,3.404c0,1.332,0.383,2.469,1.149,3.414
			S20.013,43.275,21.573,43.275z M19.963,36.34c0.374-0.49,0.908-0.736,1.603-0.736s1.228,0.246,1.6,0.736
			c0.371,0.492,0.558,1.191,0.558,2.1c0,0.91-0.187,1.609-0.558,2.104c-0.372,0.492-0.905,0.74-1.6,0.74s-1.229-0.246-1.603-0.74
			c-0.375-0.492-0.563-1.193-0.563-2.102C19.399,37.531,19.588,36.832,19.963,36.34z"/>
		<path d="M29.899,41.826c1.051,0.443,0.748,0.756,1.021,0.932c0.459,0.301,1.13,0.449,1.885,0.449c1.198,0,2.168-0.463,2.836-1.391
			c0.671-0.926,1.021-2.096,1.021-3.506c0-1.359-0.331-2.469-1.009-3.33c-0.679-0.861-1.614-1.291-2.816-1.291
			c-0.665,0-1.362,0.139-1.792,0.416c-0.362,0.223-0.096,0.545-1.146,0.965V30.95h-2.1V42.5h2.1V41.826L29.899,41.826z
			 M30.387,36.938c0.324-0.783,0.921-1.174,1.788-1.174c0.856,0,1.443,0.4,1.763,1.199c0.168,0.422,0.254,0.953,0.254,1.598
			c0,0.807-0.172,1.455-0.512,1.949c-0.343,0.496-0.82,0.742-1.438,0.742c-0.711,0-1.24-0.256-1.587-0.768
			c-0.348-0.51-0.521-1.154-0.521-1.932C30.135,37.893,30.219,37.352,30.387,36.938z"/>
		<path d="M40.399,41.826c0,0.443,0.707,0.756,0.98,0.932c0.458,0.301,1.11,0.449,1.864,0.449c1.199,0,2.157-0.463,2.828-1.391
			c0.67-0.926,1.016-2.096,1.016-3.506c0-1.359-0.334-2.469-1.014-3.33c-0.679-0.861-1.615-1.291-2.815-1.291
			c-0.666,0-1.322,0.139-1.752,0.416c-0.364,0.223-1.107,0.545-1.107,0.965V30.95h-2.1V42.5h2.1V41.826z M40.806,36.938
			c0.324-0.783,0.921-1.174,1.788-1.174c0.857,0,1.445,0.4,1.764,1.199c0.168,0.422,0.252,0.953,0.252,1.598
			c0,0.807-0.17,1.455-0.513,1.949c-0.34,0.496-0.819,0.742-1.435,0.742c-0.712,0-1.241-0.256-1.588-0.768
			c-0.347-0.51-0.521-1.154-0.521-1.932C40.554,37.893,40.638,37.352,40.806,36.938z"/>
		<path d="M50.993,43.918c-0.12,0.297-0.249,0.496-0.387,0.59c-0.145,0.1-0.323,0.164-0.534,0.191
			c-0.21,0.027-0.588,0.035-0.819,0.025L48.8,44.707v1.898c1.05,0.018,0.601,0.027,0.728,0.029c0.129,0.004,0.375,0.004,0.587,0.004
			c1.051,0,1.789-0.207,2.14-0.619c0.35-0.414,0.846-1.375,1.446-3.096l3.13-8.824h-2.522l-1.874,6.697L50.451,34.1h-2.64
			l3.336,9.373C51.164,43.539,51.113,43.615,50.993,43.918z"/>
		<rect x="7.85" y="45.65" width="37.8" height="3.15"/>
		<path d="M61.399,13.1c1.159,0,2.101-0.941,2.101-2.1c0-1.16-0.941-2.1-2.101-2.1H2.6C1.44,8.9,0.5,9.84,0.5,11
			c0,1.159,0.94,2.1,2.1,2.1h5.25v10.5H5.225C2.62,23.6,0.5,25.72,0.5,28.325v22.05c0,2.605,2.12,4.725,4.725,4.725h53.55
			c2.604,0,4.726-2.119,4.726-4.725v-22.05c0-2.605-2.121-4.725-4.726-4.725H55.1V13.1H61.399z M60.35,28.325v22.05
			c0,0.869-0.706,1.574-1.575,1.574H5.225c-0.868,0-1.575-0.705-1.575-1.574v-22.05c0-0.869,0.707-1.575,1.575-1.575h53.55
			C59.644,26.75,60.35,27.457,60.35,28.325z M51.949,23.6H11V13.1h40.95L51.949,23.6L51.949,23.6z"/>
	</g>
</g>
</svg>
