<?xml version="1.0" encoding="utf-8"?>
<!-- Generator: Adobe Illustrator 15.0.2, SVG Export Plug-In . SVG Version: 6.00 Build 0)  -->
<!DOCTYPE svg PUBLIC "-//W3C//DTD SVG 1.1//EN" "http://www.w3.org/Graphics/SVG/1.1/DTD/svg11.dtd">
<svg version="1.1" id="Capa_1" xmlns="http://www.w3.org/2000/svg" xmlns:xlink="http://www.w3.org/1999/xlink" x="0px" y="0px"
	 width="64px" height="64px" viewBox="0 0 64 64" enable-background="new 0 0 64 64" xml:space="preserve">
<path d="M55.268,10.11c-1.35,0-2.445,1.097-2.445,2.444v5.789c0,0.17-0.139,0.309-0.31,0.309h-0.76V1.568
	c0-0.05-0.02-0.093-0.027-0.141c-0.011-0.074-0.019-0.144-0.044-0.215c-0.025-0.073-0.065-0.134-0.105-0.198
	c-0.023-0.04-0.035-0.086-0.065-0.124c-0.012-0.013-0.027-0.019-0.038-0.032c-0.051-0.056-0.112-0.096-0.174-0.141
	c-0.054-0.04-0.104-0.082-0.163-0.109c-0.054-0.026-0.113-0.036-0.173-0.051c-0.077-0.021-0.152-0.043-0.232-0.047
	c-0.012,0-0.027-0.009-0.043-0.009c-0.048,0-0.088,0.021-0.135,0.027c-0.076,0.01-0.149,0.019-0.223,0.044s-0.131,0.064-0.192,0.103
	c-0.042,0.026-0.09,0.037-0.129,0.068L4.603,38.075c-0.458,0.377-0.523,1.05-0.148,1.504c0.212,0.258,0.518,0.39,0.825,0.39
	c0.24,0,0.48-0.078,0.679-0.244l2.017-1.657v14.755h-5.03c-1.35,0-2.445,1.096-2.445,2.445V63.5h63V10.11H55.268z M44.589,18.652
	c-1.35,0-2.445,1.097-2.445,2.444v6.097h-1.067V10.852l8.543-7.024v14.824H44.589z M34.98,27.193c-1.35,0-2.446,1.098-2.446,2.445
	v5.791c0,0.17-0.139,0.308-0.312,0.308h-0.758V18.754l7.475-6.147v14.586H34.98z M24.302,35.737c-1.35,0-2.445,1.096-2.445,2.444
	v5.788c0,0.172-0.139,0.31-0.312,0.31h-0.758V27.534l8.544-7.024v15.228H24.302z M10.109,36.313l8.544-7.023v14.99h-5.03
	c-1.35,0-2.445,1.099-2.445,2.444v5.791c0,0.169-0.139,0.308-0.31,0.308h-0.759V36.313z"/>
</svg>
