<?xml version="1.0" encoding="utf-8"?>
<!-- Generator: Adobe Illustrator 15.0.2, SVG Export Plug-In . SVG Version: 6.00 Build 0)  -->
<!DOCTYPE svg PUBLIC "-//W3C//DTD SVG 1.1//EN" "http://www.w3.org/Graphics/SVG/1.1/DTD/svg11.dtd">
<svg version="1.1" id="Capa_1" xmlns="http://www.w3.org/2000/svg" xmlns:xlink="http://www.w3.org/1999/xlink" x="0px" y="0px"
	 width="64px" height="64px" viewBox="0 0 64 64" enable-background="new 0 0 64 64" xml:space="preserve" fill="#fff">
<g>
	<path fill-rule="evenodd" clip-rule="evenodd" d="M36.7,17.222c-0.286,0-0.286-0.526-0.286-0.526V4.277
		c0-1.938-1.65-3.612-3.324-3.612c-9.932,0-20.171,0-29.287,0C1.866,0.665,0.5,2.339,0.5,4.277v55.447
		c0,2.246,1.366,3.61,3.303,3.61h56.373c1.938,0,3.324-1.364,3.324-3.61V16.958L36.7,17.222z M6.292,13.084
		c0-0.529,0.549-0.792,1.101-0.792h7.2c0.264,0,0.815,0.264,0.815,0.792v4.405c0,0.571-0.552,0.835-0.815,0.835h-7.2
		c-0.552,0-1.101-0.264-1.101-0.835V13.084z M6.292,33.782v-4.403c0-0.264,0.549-0.835,1.101-0.835h7.2
		c0.264,0,0.815,0.571,0.815,0.835v4.403c0,0.573-0.552,1.103-0.815,1.103h-7.2C6.841,34.885,6.292,34.355,6.292,33.782
		L6.292,33.782z M23.158,57.256c0,0.573-0.286,0.835-0.835,0.835h-8.016c-0.286,0-0.84-0.262-0.84-0.835V43.735
		c0-0.573,0.554-0.835,0.84-0.835h8.016c0.549,0,0.835,0.262,0.835,0.835V57.256z M30.339,33.782c0,0.573-0.286,1.103-0.84,1.103
		h-7.176c-0.552,0-0.815-0.529-0.815-1.103v-4.403c0-0.264,0.264-0.835,0.815-0.835h7.176c0.554,0,0.84,0.571,0.84,0.835V33.782
		L30.339,33.782z M30.339,17.489c0,0.571-0.286,0.835-0.84,0.835h-7.176c-0.552,0-0.815-0.264-0.815-0.835v-4.405
		c0-0.529,0.264-0.792,0.815-0.792h7.176c0.554,0,0.84,0.264,0.84,0.792V17.489L30.339,17.489z M46.082,48.139
		c0,0.573-0.552,1.102-0.815,1.102h-7.198c-0.554,0-0.817-0.528-0.817-1.102v-4.403c0-0.573,0.264-0.835,0.817-0.835h7.198
		c0.264,0,0.815,0.262,0.815,0.835V48.139z M46.082,31.846c0,0.572-0.552,0.835-0.815,0.835h-7.198
		c-0.554,0-0.817-0.263-0.817-0.835v-4.404c0-0.573,0.264-1.102,0.817-1.102h7.198c0.264,0,0.815,0.529,0.815,1.102V31.846z
		 M59.075,48.139c0,0.573-0.265,1.102-0.815,1.102h-7.2c-0.552,0-0.815-0.528-0.815-1.102v-4.403c0-0.573,0.264-0.835,0.815-0.835
		h7.2c0.551,0,0.815,0.262,0.815,0.835V48.139z M59.075,31.846c0,0.572-0.265,0.835-0.815,0.835h-7.2
		c-0.552,0-0.815-0.263-0.815-0.835v-4.404c0-0.573,0.264-1.102,0.815-1.102h7.2c0.551,0,0.815,0.529,0.815,1.102V31.846z"/>
</g>
</svg>
