<?xml version="1.0" encoding="utf-8"?>
<!-- Generator: Adobe Illustrator 15.0.2, SVG Export Plug-In . SVG Version: 6.00 Build 0)  -->
<!DOCTYPE svg PUBLIC "-//W3C//DTD SVG 1.1//EN" "http://www.w3.org/Graphics/SVG/1.1/DTD/svg11.dtd">
<svg version="1.1" id="Capa_1" xmlns="http://www.w3.org/2000/svg" xmlns:xlink="http://www.w3.org/1999/xlink" x="0px" y="0px"
	 width="64px" height="64px" viewBox="0 0 64 64" enable-background="new 0 0 64 64" xml:space="preserve">
<g>
	<path d="M29.616,58.785c-0.347,0-0.805-0.166-1.399-0.509c-1.995-1.148-5.349-5.979-6.771-9.751
		c-1.419-3.763-2.366-11.661-2.396-12.415c-0.007-0.152-0.005-0.296-0.004-0.428c0.006-0.573-0.031-0.581-0.185-0.613
		c-0.188-0.004-0.365,0.104-0.584,0.231c-0.383,0.223-0.859,0.5-1.526,0.5c-1.296,0-2.031-0.952-2.354-1.519
		c-0.236-0.413-0.758-0.425-0.816-0.425L2.982,33.712c-0.002,0.002-0.235,0.022-0.543,0.022c-1.603,0-1.939-0.527-1.939-0.969
		c0-0.651,0.492-1.057,1.284-1.057c0.078,0,0.126,0.005,0.126,0.005l12.039,0.385c0.001,0,0.001,0,0.002,0
		c0.419,0,0.819-0.232,1.243-0.478c0.496-0.288,1.009-0.585,1.604-0.585c0.635,0.017,1.162,0.295,1.526,0.563V30.36
		c0-0.263,0.01-0.607,0.022-0.997c0.037-1.253,0.094-3.146-0.183-4.04l-0.058-0.188c-0.367-1.179-0.822-2.645-0.619-4.008
		c0.134-0.899,0.438-6.158,0.66-9.997c0.109-1.887,0.197-3.423,0.236-3.92c0.114-1.483,0.215-1.996,1.438-1.996
		c0.347,0,0.545,0.169,0.65,0.312c0.407,0.546,0.115,1.616,0.053,1.825c-0.432,3.438-1.09,8.767-1.09,9.156
		c0,0.119-0.011,0.264-0.023,0.419c-0.022,0.281-0.063,0.808,0.054,0.935c0.436,0.005,0.511-0.651,0.512-0.659
		c0.221-2.142,0.636-6.317,0.636-6.809c0-0.084-0.006-0.194-0.011-0.323c-0.035-0.729-0.088-1.833,0.442-2.389
		c0.434-0.455,1.256-0.404,1.637,0.063c0.485,0.599,0.279,1.665,0.255,1.784c-0.004,0.054-0.865,8.551-0.923,9.604
		c-0.013,0.249-0.046,0.55-0.081,0.867c-0.063,0.563-0.208,1.881,0.013,2.025c0,0,0.001,0,0.002,0c0.289,0,0.395-0.551,0.405-0.751
		c0.026-0.269,0.615-6.251,0.96-8.239c0.354-2.026,0.516-2.951,1.523-2.951c0.218,0,0.404,0.088,0.538,0.255
		c0.386,0.479,0.185,1.512,0.141,1.714c-0.005,0.037-0.841,5.918-1.187,7.814c-0.053,0.296-0.121,0.641-0.193,1.014
		c-0.248,1.268-0.83,4.236-0.518,4.62c0.364-0.027,0.587-0.811,0.624-1.021c0.013-0.05,2.157-6.049,2.535-7.093l0.12-0.342
		c0.38-1.097,0.853-2.461,1.826-2.461c0.12,0,0.243,0.022,0.365,0.067c0.27,0.101,0.467,0.294,0.568,0.56
		c0.307,0.796-0.328,2.052-0.401,2.193c0.002-0.001-2.917,6.846-3.351,7.887c-0.26,0.623-0.949,2.275-0.495,2.503
		c0.331,0.163,0.732-0.483,0.885-0.812c0.107-0.236,2.676-5.874,3.396-7.256c0.098-0.188,0.195-0.39,0.296-0.597
		c0.543-1.116,1.158-2.383,2.174-2.383c0.29,0,0.587,0.107,0.883,0.319c1.302,0.931,0.856,2.585,0.438,3.33
		c-0.078,0.108-5.632,7.617-6.335,9.191c-0.242,0.543-0.293,0.969-0.143,1.201c0.13,0.2,0.417,0.242,0.635,0.242
		c0.27,0,0.59-0.062,0.953-0.183c1.596-0.531,3.535-1.784,3.85-2.1c0.237-0.236,0.348-0.551,0.477-0.915l0.091-0.25
		c0.229-0.61,1.053-1.034,1.542-1.068c0.389-0.027,0.774-0.056,1.068-0.305l0.203-0.169c0.361-0.297,0.856-0.704,1.446-1.365
		c0.741-0.83,1.084-1.459,1.262-2.32c0.05-0.241,0.083-0.508,0.116-0.771c0.114-0.907,0.232-1.845,1.004-1.904c0,0,0,0,0.001,0
		c0.594,0,0.91,0.639,1.072,1.2c0.432-0.585,1.04-1.201,1.523-1.201c0.113,0,0.487,0.041,0.598,0.56
		c0.078,0.367,0.007,0.761-0.124,1.123c0.492-0.167,1.033-0.12,1.29,0.151c0.124,0.13,0.184,0.298,0.174,0.487
		c-0.032,0.652-1.126,1.723-1.46,2.035l-1.072,0.778c-0.411,0.296-0.424,0.449-0.424,0.451c0.02,0.037,0.215,0.157,0.656,0.167
		c0.444,0.009,1.488,0.031,1.658,0.866c0.026,0.134,0.021,0.342-0.156,0.579c-0.319,0.43-1.101,0.792-1.859,0.862
		c-0.688,0.068-1.656-0.555-2.415-1.051c-0.295-0.193-0.663-0.434-0.784-0.462c-0.211-0.053-0.324,0.072-0.615,0.357
		c-0.115,0.111-0.241,0.234-0.39,0.359c-0.499,0.42-0.84,0.824-0.999,1.541c-0.202,0.909-1.389,0.985-1.835,1.014
		c-0.046,0.003-0.082,0.005-0.103,0.008c-0.027,0.018-0.181,0.155-0.316,0.277c-0.227,0.205-0.538,0.486-0.967,0.798
		c-0.333,0.241-0.479,0.373-0.542,0.445c0.037,0.021,0.096,0.052,0.188,0.089c0.022,0.009,0.119,0.04,0.399,0.04
		c1.067,0,3.227-0.43,3.248-0.434l20.742-4.751l0.762-0.228c0.368-0.108,1.285-0.313,2.131-0.313c1.494,0,1.718,0.673,1.718,1.073
		c0,1.464-2.282,1.608-2.379,1.614c-0.132,0.027-17.184,3.301-18.241,3.528c-0.252,0.055-0.499,0.096-0.73,0.133
		c-0.673,0.11-1.081,0.193-1.081,0.405c0,0.079,0.021,0.093,0.032,0.101c0.018,0.011,0.072,0.036,0.196,0.036
		c0.133,0,0.252-0.029,0.253-0.03c0.732-0.136,17.421-3.197,18.933-3.255c0.292-0.012,0.589-0.036,0.877-0.061
		c0.377-0.031,0.74-0.061,1.063-0.061c0.374,0,1.512,0,1.512,1.066c0,1.51-3.003,1.526-3.034,1.526
		c-0.165,0.007-2.479,0.26-5.159,0.553c-6.513,0.713-11.957,1.303-12.605,1.303c-0.494,0-1.318,0.057-1.342,0.428
		c0.02-0.01,0.094,0.019,0.252,0.019c0.277,0,0.581-0.07,0.583-0.07c0.791-0.075,18.354-1.661,19.17-1.661h0.142
		c0.778,0,2.399,0,2.399,1.295c0,0.754-0.655,1.186-1.795,1.186c-0.107,0-0.19-0.004-0.236-0.006
		c-0.016,0.004-0.272,0.008-0.668,0.02c-8.447,0.274-13.805,0.414-15.926,0.414c-1.803,0-2.639,0.067-3.022,0.138
		c0.421,0.062,1.117,0.104,1.722,0.112c0.171,0.007,16.219,0.639,17.617,0.639c0.994,0,2.656,0,2.656,1.468
		c0,0.496-0.39,1.087-2.248,1.087c-0.294,0-0.533-0.016-0.637-0.021c-0.063-0.003-0.068-0.003-2.621-0.253
		c-4.453-0.437-14.879-1.46-15.523-1.46c-0.22,0-0.48-0.025-0.749-0.053c-0.263-0.027-0.534-0.055-0.778-0.055
		c-0.569,0-0.569,0.146-0.569,0.234c0,0.394,1.044,0.559,1.603,0.56c0.846,0.134,19.543,3.194,20.156,3.34
		c0.827,0.198,2.08,1,1.917,2.312c-0.054,0.423-0.354,1.132-1.772,1.132c-0.372,0-0.664-0.053-0.677-0.055
		c-0.291-0.073-27.006-6.902-28.057-7.101c-0.257-0.05-0.434-0.029-0.496,0.053c-0.035,0.043-0.106,0.188-0.014,0.587
		c0.107,0.188,1.063,0.561,1.471,0.72l0.345,0.137c0.496,0.203,1.16,0.571,1.204,1.431c0.008,0.141,0.096,0.21,0.345,0.373
		c0.201,0.132,0.452,0.296,0.627,0.582c0.221,0.361,0.728,0.576,1.358,0.576c0.436,0,1.981-0.363,2.907-0.58
		c0.365-0.086,0.672-0.158,0.855-0.196c0.128-0.026,0.26-0.064,0.389-0.102c0.247-0.071,0.502-0.145,0.731-0.145
		c0.228,0,0.759,0.087,0.759,0.896c0,1.151-0.856,1.234-1.544,1.303l-0.209,0.021c-0.158,0.018-0.198,0.041-0.203,0.044
		c0.007,0.021,0.026,0.195,0.045,0.35c0.032,0.282,0.077,0.668,0.057,1.195c-0.026,0.658,0.009,1.408,0.037,2.01
		c0.047,1.007,0.051,1.202-0.092,1.352l-0.092,0.096l-0.258,0.006l-0.104-0.079c-0.134-0.111-0.194-0.311-0.363-0.924
		c-0.064-0.231-0.162-0.585-0.256-0.852c-0.018,0.264-0.012,0.616-0.008,0.885c0.002,0.159,0.005,0.32,0.005,0.48
		c0,0.271,0.107,0.66,0.213,1.037c0.185,0.667,0.359,1.298,0.072,1.676c-0.091,0.119-0.269,0.262-0.595,0.262
		c-1.323,0-1.323-2.545-1.323-3.382c0-0.552-0.111-0.937-0.271-0.937c-0.032,0.027-0.066,0.177-0.066,0.271v1.854
		c0,0.328,0,1.325-0.919,1.325c-0.644,0-0.862-0.951-0.914-1.242c-0.01-0.123-0.148-2.227-0.148-3.125
		c0-0.735-0.26-1.029-0.263-1.032c-0.375-0.543-1.32-1.908-1.569-2.18c-0.084-0.091-0.137-0.169-0.183-0.235
		c-0.075-0.109-0.103-0.149-0.737-0.187c-1.087-0.062-1.679-0.751-1.767-1.366c-0.047-0.321-0.351-0.685-1.049-1.251
		c-0.102-0.084-0.225-0.19-0.363-0.311c-0.597-0.516-1.705-1.475-2.308-1.475c-0.122,0-0.22,0.037-0.299,0.218
		c-0.143,0.333-0.166,0.609-0.068,0.822c0.126,0.274,0.428,0.381,0.431,0.382l0.099,0.053c1.652,1.313,4.825,3.83,5.007,3.966
		l0.08,0.058c0.385,0.27,1.555,1.093,1.492,2.263c-0.027,0.527-0.328,0.843-0.804,0.843c-0.497,0-1.06-0.354-1.122-0.395
		l-0.057-0.047c-0.028-0.029-2.82-2.966-4.105-4.191c-0.32-0.306-1.291-1.234-1.729-1.234c-0.061,0-0.106,0.02-0.156,0.069
		c-0.05,0.104,0.201,0.545,0.553,0.896c0.011,0.011,4.529,4.995,5.167,5.689c0.127,0.139,0.274,0.283,0.424,0.428
		c0.512,0.499,0.996,0.97,1,1.484c0.001,0.213-0.083,0.41-0.245,0.573c-0.184,0.183-0.403,0.279-0.636,0.279
		c-0.568,0-1.006-0.568-1.054-0.633c-0.095-0.083-3.173-3.004-4.274-4.334c-0.338-0.409-1.367-1.652-1.833-1.652
		c-0.038,0-0.071,0.008-0.115,0.052c-0.18,0.179,0.202,0.718,0.436,0.953c0.211,0.254,4.731,5.726,5.401,6.742
		c0.169,0.26,0.328,0.471,0.463,0.649c0.399,0.53,0.743,0.987,0.219,1.509c-0.147,0.148-0.33,0.228-0.526,0.228
		c-0.502,0-0.906-0.508-0.982-0.609c-0.13-0.173-3.204-4.256-3.672-5.073c-0.539-0.944-1.269-1.791-1.545-1.896
		c-0.141,0.203-0.081,0.629-0.019,0.852c0.377,0.555,3.952,5.822,4.678,7.049l0.098,0.166c0.705,1.191,1.06,1.789,0.377,2.472
		c-0.158,0.158-0.352,0.242-0.559,0.242c-0.59,0-1.072-0.676-1.163-0.812c-0.131-0.199-3.175-4.837-3.585-5.653
		c-0.463-0.93-1.265-1.983-1.532-2.016c-0.151,0.188-0.195,0.324,0.224,0.841c0.222,0.272,1.297,1.943,2.542,3.88
		c0.933,1.449,1.906,2.964,2.517,3.88c0.807,1.209,1.09,2.056,0.844,2.518C30.185,58.569,30.01,58.785,29.616,58.785z
		 M18.815,34.445c0.059,0,0.116,0.007,0.172,0.018c0.687,0.145,0.682,0.719,0.677,1.226c-0.001,0.122-0.003,0.255,0.004,0.397
		c0.029,0.743,0.961,8.521,2.356,12.222c1.357,3.6,4.639,8.36,6.502,9.433c0.929,0.535,1.165,0.423,1.18,0.411
		c0.052-0.063,0.068-0.567-0.811-1.884c-0.612-0.919-1.588-2.437-2.522-3.889c-1.132-1.76-2.302-3.579-2.503-3.825
		c-0.263-0.325-0.812-1.001-0.122-1.69c0.104-0.104,0.236-0.159,0.383-0.159c0.884,0,2.071,2.333,2.082,2.356
		c0.395,0.785,3.517,5.542,3.549,5.59c0.149,0.223,0.46,0.534,0.646,0.534c0.018,0,0.06,0,0.12-0.061
		c0.32-0.32,0.23-0.533-0.471-1.719l-0.099-0.166c-0.739-1.252-4.645-6.997-4.684-7.056l-0.038-0.079
		c-0.034-0.105-0.319-1.049,0.19-1.559c0.101-0.1,0.228-0.152,0.37-0.152c0.841,0,2.104,2.195,2.118,2.218
		c0.448,0.783,3.598,4.967,3.63,5.009c0.114,0.152,0.347,0.362,0.486,0.362c0.014,0,0.043,0,0.09-0.046
		c0.123-0.123,0.143-0.143-0.277-0.699c-0.141-0.188-0.308-0.41-0.486-0.682c-0.65-0.988-5.294-6.609-5.341-6.666l0,0
		c-0.002,0-0.243-0.246-0.426-0.558c-0.397-0.681-0.164-1.075,0.011-1.249c0.152-0.153,0.344-0.233,0.553-0.233
		c0.545,0,1.192,0.526,2.311,1.876c1.076,1.303,4.228,4.291,4.259,4.32c0.13,0.165,0.389,0.423,0.592,0.423
		c0.043,0,0.109-0.01,0.197-0.098c0.058-0.058,0.064-0.099,0.064-0.131c-0.002-0.256-0.451-0.694-0.813-1.046
		c-0.157-0.153-0.313-0.306-0.449-0.453c-0.638-0.694-5.159-5.681-5.159-5.681c-0.183-0.184-1.121-1.18-0.541-1.761
		c0.167-0.166,0.366-0.251,0.594-0.251c0.494,0,1.1,0.395,2.157,1.405c1.227,1.172,3.807,3.877,4.1,4.185
		c0.187,0.114,0.532,0.277,0.757,0.277c0.089,0,0.173,0,0.187-0.256c0.043-0.828-0.916-1.503-1.231-1.725l-0.096-0.068
		c-0.224-0.168-4.493-3.558-4.98-3.945c-0.155-0.062-0.546-0.255-0.747-0.693c-0.173-0.379-0.151-0.824,0.063-1.324
		c0.166-0.382,0.474-0.592,0.867-0.592c0.833,0,1.964,0.979,2.712,1.625c0.134,0.116,0.253,0.219,0.351,0.299
		c0.842,0.685,1.198,1.145,1.271,1.644c0.038,0.268,0.337,0.788,1.188,0.836c0.822,0.048,0.998,0.14,1.214,0.455
		c0.032,0.047,0.069,0.103,0.128,0.166c0.324,0.355,1.464,2.021,1.593,2.21c0.009,0.001,0.402,0.422,0.402,1.421
		c0,0.878,0.142,3.028,0.144,3.05c0.061,0.329,0.22,0.665,0.309,0.699c0.11-0.001,0.291-0.001,0.291-0.707v-1.854
		c0-0.429,0.215-0.89,0.686-0.89c0.333,0,0.891,0.202,0.891,1.556c0,2.564,0.539,2.763,0.704,2.763c0.065,0,0.097-0.013,0.103-0.019
		c0.101-0.133-0.08-0.785-0.178-1.134c-0.115-0.417-0.234-0.848-0.234-1.203c0-0.156-0.003-0.314-0.005-0.471
		c-0.015-0.972-0.027-1.739,0.531-1.817c0.276-0.031,0.453,0.187,0.607,0.542c-0.014-0.414-0.02-0.847-0.004-1.252
		c0.02-0.479-0.022-0.838-0.053-1.1c-0.041-0.353-0.07-0.606,0.099-0.817c0.149-0.188,0.39-0.238,0.605-0.262l0.218-0.022
		c0.748-0.073,0.985-0.123,0.985-0.687c0-0.276-0.056-0.276-0.14-0.276c-0.143,0-0.354,0.062-0.561,0.12
		c-0.145,0.042-0.291,0.084-0.434,0.113c-0.181,0.037-0.481,0.108-0.841,0.192c-1.339,0.314-2.58,0.597-3.048,0.597
		c-0.86,0-1.548-0.317-1.887-0.873c-0.103-0.167-0.266-0.273-0.438-0.386c-0.267-0.175-0.599-0.392-0.623-0.859
		c-0.016-0.28-0.124-0.604-0.821-0.89l-0.336-0.134c-1.051-0.41-1.748-0.713-1.849-1.157c-0.112-0.485-0.067-0.86,0.132-1.111
		c0.144-0.18,0.442-0.398,1.097-0.275c1.069,0.202,26.955,6.819,28.072,7.104l0,0c0.006,0,0.247,0.04,0.546,0.04
		c0.494,0,1.098-0.104,1.158-0.59c0.129-1.037-1.108-1.552-1.446-1.632c-0.474-0.113-13.33-2.226-20.063-3.328
		c-0.165,0.018-2.172-0.026-2.172-1.174c0-0.389,0.206-0.854,1.188-0.854c0.264,0,0.557,0.029,0.842,0.059
		c0.246,0.025,0.484,0.05,0.686,0.05c0.593,0,7.84,0.703,15.584,1.463c1.483,0.146,2.475,0.243,2.547,0.248
		c0.15,0.009,0.375,0.023,0.65,0.023c0.989,0,1.629-0.184,1.629-0.468c0-0.55-0.324-0.849-2.037-0.849
		c-1.41,0-16.971-0.613-17.633-0.639c-2.586-0.032-2.586-0.377-2.586-0.628c-0.001-0.113-0.003-0.292,0.153-0.449
		c0.224-0.225,0.66-0.411,3.749-0.411c2.113,0,7.465-0.139,15.905-0.413c0.418-0.014,0.659-0.021,0.671-0.021
		c0.087,0.004,0.16,0.007,0.254,0.007c0.438,0,1.176-0.073,1.176-0.566c0-0.561-0.712-0.676-1.78-0.676h-0.142
		c-0.631,0-12.749,1.08-19.069,1.65l0,0c0.013,0-0.34,0.081-0.684,0.081c-0.212,0-0.381-0.029-0.517-0.091
		c-0.225-0.102-0.354-0.295-0.354-0.53c0-0.706,0.659-1.063,1.961-1.063c0.667,0,7.812-0.782,12.538-1.3
		c3.69-0.403,5.097-0.557,5.227-0.557c0.645,0,2.415-0.215,2.415-0.907c0-0.188,0-0.447-0.893-0.447
		c-0.307,0-0.653,0.029-1.013,0.059c-0.296,0.025-0.602,0.05-0.902,0.062c-1.469,0.056-18.648,3.209-18.822,3.241
		c0.004,0-0.175,0.045-0.388,0.045c-0.21,0-0.387-0.044-0.527-0.132c-0.206-0.132-0.32-0.353-0.32-0.624
		c0-0.754,0.813-0.887,1.601-1.016c0.222-0.037,0.459-0.075,0.7-0.127c1.063-0.23,17.592-3.402,18.295-3.537
		c0.059-0.007,1.836-0.134,1.836-1.001c0-0.376-0.598-0.454-1.099-0.454c-0.719,0-1.563,0.172-1.954,0.287l-0.781,0.232
		l-20.77,4.758c-0.1,0.02-2.249,0.447-3.378,0.447c-0.289,0-0.491-0.027-0.634-0.086c-0.184-0.075-0.566-0.231-0.607-0.575
		c-0.044-0.368,0.317-0.661,0.833-1.033c0.401-0.292,0.698-0.561,0.916-0.756c0.287-0.26,0.445-0.402,0.642-0.431
		c0.03-0.005,0.083-0.009,0.151-0.013c0.289-0.019,1.169-0.075,1.271-0.53c0.208-0.937,0.702-1.457,1.204-1.881
		c0.136-0.114,0.252-0.228,0.356-0.329c0.34-0.331,0.689-0.635,1.189-0.517c0.216,0.05,0.499,0.231,0.981,0.546
		c0.616,0.403,1.461,0.956,1.967,0.956c0.935-0.085,1.521-0.565,1.518-0.707c-0.021-0.103-0.07-0.348-1.064-0.368
		c-0.67-0.016-1.12-0.236-1.234-0.606c-0.111-0.358,0.108-0.739,0.653-1.133l1.042-0.753c0.57-0.536,1.221-1.319,1.234-1.59
		c-0.063-0.131-0.71-0.132-1.1,0.239l-0.551,0.521l-0.45-0.423c0.263-0.315,0.914-1.278,0.773-1.939
		c-0.015-0.067-0.031-0.089-0.031-0.089c-0.188,0.02-0.952,0.765-1.36,1.558l-0.466,0.901l-0.117-1.008
		c-0.084-0.724-0.362-1.433-0.561-1.433c-0.274,0.021-0.372,0.797-0.443,1.364c-0.036,0.28-0.071,0.563-0.124,0.819
		c-0.231,1.12-0.71,1.828-1.406,2.607c-0.622,0.697-1.138,1.121-1.515,1.432l-0.196,0.163c-0.449,0.38-0.98,0.418-1.408,0.448
		c-0.315,0.022-0.898,0.337-1.023,0.67l-0.086,0.238c-0.141,0.398-0.286,0.812-0.623,1.147c-0.394,0.394-2.398,1.685-4.092,2.249
		c-0.426,0.142-0.813,0.214-1.148,0.214c-0.673,0-0.999-0.285-1.153-0.524c-0.19-0.293-0.328-0.842,0.096-1.79
		c0.729-1.636,6.15-8.964,6.381-9.275c0.017-0.034,0.896-1.65-0.278-2.49c-0.189-0.135-0.365-0.203-0.523-0.203
		c-0.628,0-1.177,1.127-1.617,2.033c-0.103,0.212-0.203,0.419-0.304,0.612c-0.713,1.367-3.357,7.171-3.384,7.229
		c-0.058,0.125-0.58,1.197-1.344,1.197c-0.131,0-0.258-0.031-0.38-0.092c-0.97-0.486-0.265-2.176,0.201-3.294
		c0.434-1.043,3.363-7.914,3.363-7.914c0.236-0.459,0.539-1.302,0.383-1.707c-0.039-0.1-0.103-0.162-0.206-0.2
		c-0.053-0.02-0.104-0.029-0.15-0.029c-0.532,0-0.976,1.279-1.241,2.045l-0.123,0.35c-0.378,1.043-2.521,7.041-2.521,7.041
		c-0.087,0.509-0.466,1.453-1.257,1.453c-0.226-0.014-0.358-0.088-0.457-0.217c-0.442-0.579-0.112-2.484,0.402-5.114
		c0.072-0.37,0.14-0.712,0.193-1.005c0.343-1.886,1.178-7.754,1.186-7.813c0.089-0.409,0.129-1.04-0.014-1.217
		c-0.515-0.021-0.63,0.47-0.969,2.415c-0.341,1.965-0.947,8.116-0.953,8.179c-0.025,0.508-0.274,1.424-1.1,1.319
		c-0.84-0.104-0.694-1.428-0.553-2.707c0.033-0.305,0.065-0.594,0.078-0.833c0.059-1.068,0.894-9.315,0.93-9.666
		c0.053-0.261,0.131-0.986-0.125-1.3c-0.054-0.066-0.151-0.154-0.379-0.154c-0.14,0-0.244,0.041-0.328,0.129
		c-0.348,0.364-0.299,1.385-0.272,1.933c0.006,0.14,0.012,0.261,0.012,0.353c0,0.646-0.613,6.616-0.639,6.87
		c-0.039,0.425-0.312,1.234-1.062,1.234c-0.21,0-0.39-0.075-0.521-0.217c-0.301-0.326-0.256-0.898-0.216-1.403
		c0.011-0.138,0.021-0.265,0.021-0.37c0-0.554,0.992-8.393,1.104-9.284c0.126-0.436,0.219-1.108,0.055-1.328
		c-0.016-0.021-0.045-0.062-0.153-0.062c-0.686,0-0.712,0-0.821,1.424c-0.038,0.496-0.127,2.028-0.236,3.909
		c-0.222,3.851-0.526,9.126-0.665,10.053c-0.183,1.223,0.231,2.556,0.598,3.731l0.059,0.188c0.307,0.992,0.25,2.87,0.209,4.242
		c-0.012,0.383-0.021,0.721-0.021,0.979v2.81l-0.549-0.672c-0.008-0.008-0.682-0.818-1.566-0.843h-0.001
		c-0.46,0-0.879,0.243-1.323,0.501c-0.477,0.276-0.97,0.563-1.523,0.563L1.784,32.328c-0.441,0-0.665,0.147-0.665,0.438
		c0,0.174,0.454,0.349,1.321,0.349c0.292,0,0.509-0.019,0.516-0.02l10.611,0.144c0.167,0.018,0.965,0.035,1.367,0.736
		c0.257,0.451,0.833,1.207,1.816,1.207c0.5,0,0.881-0.222,1.216-0.416C18.249,34.601,18.517,34.445,18.815,34.445z"/>
</g>
</svg>
