<?xml version="1.0" encoding="utf-8"?>
<!-- Generator: Adobe Illustrator 16.0.0, SVG Export Plug-In . SVG Version: 6.00 Build 0)  -->
<!DOCTYPE svg PUBLIC "-//W3C//DTD SVG 1.1//EN" "http://www.w3.org/Graphics/SVG/1.1/DTD/svg11.dtd">
<svg version="1.1" id="Capa_1" xmlns="http://www.w3.org/2000/svg" xmlns:xlink="http://www.w3.org/1999/xlink" x="0px" y="0px"
	 width="257.087px" height="50.94px" viewBox="0 0 257.087 50.94" enable-background="new 0 0 257.087 50.94" xml:space="preserve">
<g>
	<path fill="#DFE6B7" d="M246.906,50.94h-80.514c-0.291,0-0.525-0.234-0.525-0.526c0-0.292,0.234-0.527,0.525-0.527h80.514
		c0.293,0,0.525,0.236,0.525,0.527C247.432,50.706,247.199,50.94,246.906,50.94"/>
	<path fill="#DFE6B7" d="M246.291,50.94c-0.293,0-0.529-0.234-0.529-0.526c0-0.292,0.236-0.527,0.529-0.527
		c3.512,0,5.688-0.73,7.752-2.607c1.553-1.412,2.625-3.88,1.545-5.672c-0.98-1.632-3.334-1.923-4.949-1.255
		c-0.48,0.197-1.34,0.65-1.697,1.463c-0.248,0.564-0.176,1.403,0.371,1.774c0.244,0.164,0.307,0.492,0.143,0.733
		c-0.16,0.239-0.49,0.304-0.732,0.142c-0.908-0.613-1.234-1.962-0.746-3.072c0.375-0.854,1.178-1.569,2.262-2.015
		c2.063-0.85,4.967-0.452,6.254,1.688c1.383,2.297,0.172,5.259-1.74,6.996C252.5,50.106,250.049,50.94,246.291,50.94"/>
	<path fill="#DFE6B7" d="M166.395,50.94c-12.492,0-20.621-2.757-28.061-9.518c-6.148-5.585-10.084-15.039-5.713-22.302
		c4.041-6.724,13.242-7.947,19.801-5.247c3.396,1.4,5.896,3.608,7.045,6.218c1.252,2.846,0.809,6.965-2.104,8.93
		c-0.242,0.162-0.568,0.1-0.732-0.141c-0.162-0.243-0.098-0.569,0.143-0.732c2.455-1.657,2.807-5.181,1.729-7.632
		c-1.039-2.359-3.34-4.372-6.482-5.666c-6.012-2.479-14.795-1.34-18.496,4.814c-4.033,6.703-0.166,15.812,5.52,20.979
		c7.32,6.65,14.988,9.243,27.352,9.243c0.291,0,0.525,0.236,0.525,0.527C166.92,50.706,166.686,50.94,166.395,50.94"/>
	<path fill="#DFE6B7" d="M166.227,46.288c-6.92,0-16.9-1.319-23.604-7.904c-2.025-1.987-3.674-4.455-4.766-7.132
		c-1.205-2.943-1.508-5.299-1.016-7.873c0.719-3.753,4.201-6.821,8.473-7.461c2.4-0.36,4.732,0.047,6.57,1.145
		c2.084,1.248,3.459,3.407,3.592,5.633c0.018,0.291-0.205,0.54-0.494,0.557c-0.301,0.016-0.541-0.203-0.557-0.494
		c-0.113-1.885-1.295-3.721-3.084-4.791c-1.625-0.974-3.715-1.333-5.871-1.007c-3.773,0.565-6.967,3.346-7.594,6.616
		c-0.457,2.391-0.18,4.499,0.955,7.277c1.039,2.546,2.605,4.888,4.529,6.777c7.564,7.429,19.578,7.894,26.061,7.509
		c0.301-0.02,0.541,0.204,0.559,0.495c0.018,0.29-0.203,0.54-0.496,0.557C168.51,46.25,167.412,46.288,166.227,46.288"/>
	<path fill="#DFE6B7" d="M172.957,46.237c0.678,0,0.68-1.055,0-1.055S172.277,46.237,172.957,46.237"/>
	<path fill="#DFE6B7" d="M175.799,46.237c0.68,0,0.682-1.055,0-1.055C175.123,45.182,175.121,46.237,175.799,46.237"/>
	<path fill="#DFE6B7" d="M178.863,46.127c0.678,0,0.682-1.054,0-1.054C178.186,45.074,178.184,46.127,178.863,46.127"/>
	<path fill="#DFE6B7" d="M194.146,50.94c-0.264,0-0.492-0.199-0.523-0.468c-0.031-0.289,0.178-0.55,0.467-0.583
		c7.59-0.844,14.381-1.763,20.6-4.472c3.797-1.655,7.07-3.957,9.467-6.658c1.627-1.834,2.869-3.872,3.5-5.735
		c0.715-2.116,0.543-3.73-0.512-4.799c-1.846-1.877-6.023-1.825-9.193-0.806c-2.045,0.657-4.561,2.632-5.193,5.001
		c-0.352,1.309,0.256,2.905,1.441,3.793c0.551,0.413,1.672,0.984,2.994,0.182c0.25-0.151,0.572-0.071,0.723,0.177
		c0.152,0.249,0.072,0.573-0.178,0.724c-1.348,0.821-2.871,0.734-4.172-0.239c-1.516-1.135-2.285-3.199-1.83-4.907
		c0.738-2.76,3.523-4.974,5.893-5.735c3.371-1.081,8.023-1.208,10.268,1.07c0.932,0.946,1.82,2.733,0.76,5.877
		c-0.676,1.995-1.992,4.161-3.711,6.099c-2.498,2.814-5.898,5.209-9.834,6.924c-6.355,2.769-13.229,3.7-20.906,4.554
		C194.186,50.939,194.166,50.94,194.146,50.94"/>
	<path fill="#DFE6B7" d="M129.471,30.846c0,0,0.059,0.285,0.162,0.781c0.096,0.501,0.258,1.202,0.459,2.03
		c0.227,0.831,0.51,1.788,0.844,2.797c0.35,1.005,0.754,2.06,1.246,3.064c0.248,0.5,0.512,0.992,0.799,1.453
		c0.287,0.453,0.572,0.898,0.848,1.33c0.258,0.432,0.506,0.852,0.742,1.248c0.246,0.383,0.469,0.761,0.699,1.088
		c0.219,0.348,0.451,0.62,0.645,0.901c0.215,0.261,0.404,0.489,0.559,0.677c0.346,0.34,0.559,0.585,0.559,0.585l-0.082,0.195
		c0,0-0.305-0.013-0.861-0.128c-0.258-0.085-0.582-0.193-0.936-0.359c-0.326-0.191-0.738-0.39-1.092-0.696
		c-0.391-0.281-0.752-0.637-1.117-1.033c-0.357-0.396-0.707-0.846-0.994-1.343c-0.297-0.494-0.533-1.037-0.746-1.598
		c-0.203-0.562-0.416-1.123-0.59-1.697c-0.373-1.136-0.643-2.292-0.859-3.376c-0.219-1.084-0.324-2.11-0.402-2.983
		c-0.051-0.885-0.104-1.611-0.09-2.116c0-0.508,0-0.799,0-0.799L129.471,30.846z"/>
	<path fill="#DFE6B7" d="M129.719,20.276c0,0,0.109-0.332,0.299-0.91c0.096-0.289,0.201-0.642,0.373-1.036
		c0.168-0.394,0.334-0.854,0.561-1.334c0.234-0.472,0.455-1.005,0.756-1.535c0.293-0.534,0.607-1.096,0.988-1.646
		c0.352-0.567,0.773-1.117,1.199-1.68c0.447-0.546,0.904-1.106,1.416-1.619l0.762-0.775c0.27-0.244,0.539-0.486,0.807-0.729
		c0.549-0.467,1.111-0.918,1.717-1.259c1.195-0.715,2.484-1.072,3.578-1.255c0.557-0.062,1.059-0.132,1.514-0.101
		c0.453,0.026,0.838,0.02,1.158,0.101c0.637,0.122,0.98,0.23,0.98,0.23V6.94c0,0-0.35,0.137-0.926,0.313
		c-0.289,0.07-0.629,0.232-1.012,0.361c-0.391,0.111-0.801,0.341-1.256,0.508c-0.23,0.081-0.453,0.221-0.691,0.332
		c-0.236,0.114-0.488,0.205-0.725,0.354c-0.244,0.143-0.492,0.274-0.752,0.404c-0.254,0.146-0.512,0.294-0.773,0.444
		c-0.535,0.281-1.074,0.612-1.631,0.939c-0.553,0.342-1.088,0.73-1.602,1.154c-0.521,0.415-1.002,0.883-1.473,1.344
		c-0.459,0.478-0.914,0.949-1.309,1.447c-0.422,0.476-0.768,0.985-1.127,1.449c-0.361,0.462-0.645,0.94-0.941,1.363
		c-0.283,0.428-0.504,0.841-0.723,1.199c-0.221,0.355-0.379,0.692-0.525,0.959c-0.285,0.539-0.449,0.846-0.449,0.846L129.719,20.276
		z"/>
	<path fill="#DFE6B7" d="M90.693,50.94H10.18c-0.289,0-0.525-0.234-0.525-0.526c0-0.292,0.236-0.527,0.525-0.527h80.514
		c0.293,0,0.527,0.236,0.527,0.527C91.221,50.706,90.986,50.94,90.693,50.94"/>
	<path fill="#DFE6B7" d="M10.797,50.94c-3.758,0-6.21-0.834-8.463-2.88c-1.91-1.737-3.121-4.698-1.739-6.996
		c1.286-2.14,4.19-2.538,6.255-1.688c1.084,0.446,1.887,1.161,2.262,2.015c0.49,1.108,0.16,2.458-0.748,3.071
		c-0.24,0.166-0.568,0.099-0.73-0.14c-0.166-0.241-0.102-0.569,0.141-0.731c0.549-0.373,0.621-1.211,0.372-1.775
		c-0.356-0.813-1.216-1.266-1.696-1.463c-1.615-0.668-3.971-0.377-4.951,1.255c-1.078,1.792-0.007,4.26,1.547,5.672
		c2.063,1.877,4.238,2.607,7.752,2.607c0.291,0,0.527,0.236,0.527,0.527C11.324,50.706,11.088,50.94,10.797,50.94"/>
	<path fill="#DFE6B7" d="M90.693,50.94c-0.291,0-0.525-0.234-0.525-0.526c0-0.292,0.234-0.527,0.525-0.527
		c12.363,0,20.031-2.593,27.351-9.243c5.687-5.167,9.552-14.276,5.521-20.979c-3.701-6.154-12.482-7.293-18.498-4.814
		c-3.141,1.294-5.441,3.307-6.48,5.666c-1.078,2.451-0.728,5.976,1.728,7.632c0.243,0.164,0.306,0.49,0.142,0.732
		c-0.162,0.241-0.487,0.303-0.73,0.141c-2.912-1.965-3.356-6.084-2.104-8.93c1.146-2.612,3.649-4.819,7.044-6.218
		c6.56-2.7,15.759-1.477,19.802,5.247c4.369,7.263,0.433,16.717-5.713,22.302C111.314,48.183,103.186,50.94,90.693,50.94"/>
	<path fill="#DFE6B7" d="M90.861,46.288c-1.188,0-2.283-0.038-3.26-0.097c-0.289-0.017-0.511-0.267-0.494-0.557
		c0.016-0.291,0.259-0.518,0.558-0.495c6.483,0.383,18.496-0.081,26.063-7.509c1.921-1.889,3.487-4.23,4.528-6.777
		c1.135-2.779,1.41-4.887,0.954-7.277c-0.624-3.27-3.819-6.05-7.593-6.616c-2.158-0.325-4.246,0.033-5.873,1.007
		c-1.789,1.07-2.969,2.906-3.082,4.791c-0.018,0.289-0.271,0.5-0.559,0.494c-0.289-0.017-0.511-0.267-0.494-0.557
		c0.134-2.228,1.512-4.386,3.592-5.633c1.838-1.098,4.17-1.505,6.572-1.145c4.27,0.64,7.754,3.708,8.473,7.461
		c0.492,2.573,0.188,4.929-1.014,7.873c-1.093,2.677-2.743,5.145-4.768,7.132C107.76,44.967,97.78,46.288,90.861,46.288"/>
	<path fill="#DFE6B7" d="M84.131,46.237c0.68,0,0.68-1.055,0-1.055S83.451,46.237,84.131,46.237"/>
	<path fill="#DFE6B7" d="M81.287,46.237c0.678,0,0.68-1.055,0-1.055S80.605,46.237,81.287,46.237"/>
	<path fill="#DFE6B7" d="M78.223,46.127c0.68,0,0.681-1.054,0-1.054C77.545,45.074,77.543,46.127,78.223,46.127"/>
	<path fill="#DFE6B7" d="M62.939,50.94c-0.018,0-0.039-0.001-0.058-0.003c-7.679-0.854-14.552-1.785-20.905-4.554
		c-3.936-1.715-7.338-4.109-9.836-6.924c-1.717-1.938-3.035-4.103-3.708-6.099c-1.062-3.144-0.174-4.931,0.757-5.877
		c2.246-2.28,6.896-2.151,10.268-1.07c2.369,0.762,5.154,2.976,5.893,5.735c0.457,1.708-0.313,3.772-1.83,4.907
		c-1.299,0.973-2.821,1.062-4.172,0.239c-0.248-0.151-0.326-0.476-0.178-0.724c0.152-0.249,0.475-0.329,0.725-0.177
		c1.318,0.802,2.441,0.231,2.992-0.182c1.186-0.888,1.793-2.484,1.443-3.793c-0.633-2.369-3.148-4.344-5.193-5.001
		c-3.17-1.018-7.348-1.07-9.195,0.806c-1.054,1.068-1.225,2.683-0.511,4.799c0.63,1.864,1.872,3.901,3.499,5.735
		c2.398,2.701,5.671,5.003,9.467,6.658c6.219,2.709,13.01,3.628,20.602,4.472c0.289,0.034,0.498,0.294,0.465,0.583
		C63.433,50.741,63.205,50.94,62.939,50.94"/>
	<path fill="#DFE6B7" d="M127.826,30.869c0,0,0,0.29-0.002,0.797c0.016,0.506-0.039,1.232-0.09,2.117
		c-0.076,0.874-0.182,1.898-0.398,2.983c-0.219,1.083-0.486,2.24-0.861,3.377c-0.174,0.572-0.386,1.135-0.592,1.697
		c-0.211,0.558-0.447,1.102-0.744,1.598c-0.285,0.498-0.638,0.946-0.994,1.343c-0.365,0.396-0.729,0.752-1.116,1.032
		c-0.354,0.307-0.767,0.505-1.094,0.696c-0.353,0.167-0.679,0.274-0.937,0.36c-0.555,0.114-0.859,0.127-0.859,0.127l-0.082-0.195
		c0,0,0.212-0.245,0.558-0.584c0.153-0.188,0.343-0.417,0.558-0.679c0.196-0.282,0.429-0.554,0.645-0.901
		c0.23-0.326,0.455-0.703,0.701-1.088c0.234-0.396,0.484-0.813,0.742-1.247c0.275-0.432,0.56-0.877,0.85-1.33
		c0.287-0.462,0.549-0.953,0.795-1.453c0.496-1.004,0.896-2.061,1.248-3.063c0.333-1.009,0.617-1.967,0.842-2.797
		c0.201-0.828,0.363-1.53,0.461-2.031c0.102-0.497,0.162-0.78,0.162-0.78L127.826,30.869z"/>
	<path fill="#DFE6B7" d="M127.174,20.358c0,0-0.163-0.307-0.447-0.846c-0.147-0.267-0.307-0.604-0.527-0.958
		c-0.218-0.359-0.438-0.771-0.723-1.2c-0.296-0.423-0.578-0.901-0.94-1.363c-0.359-0.464-0.705-0.973-1.126-1.449
		c-0.395-0.498-0.85-0.969-1.307-1.447c-0.474-0.461-0.955-0.929-1.475-1.344c-0.514-0.424-1.051-0.812-1.602-1.154
		c-0.557-0.327-1.096-0.659-1.63-0.939c-0.265-0.15-0.521-0.299-0.774-0.444c-0.258-0.13-0.51-0.262-0.75-0.404
		c-0.24-0.149-0.492-0.241-0.729-0.354c-0.236-0.111-0.46-0.251-0.689-0.331c-0.455-0.168-0.867-0.397-1.256-0.509
		c-0.385-0.129-0.723-0.291-1.013-0.363c-0.577-0.173-0.925-0.312-0.925-0.312l-0.002-0.21c0,0,0.344-0.109,0.982-0.231
		c0.319-0.081,0.703-0.074,1.157-0.101c0.456-0.032,0.958,0.039,1.515,0.101c1.092,0.184,2.383,0.541,3.578,1.255
		c0.604,0.342,1.168,0.792,1.716,1.259c0.267,0.242,0.537,0.484,0.808,0.729l0.764,0.775c0.509,0.513,0.967,1.072,1.412,1.619
		c0.428,0.562,0.848,1.113,1.201,1.68c0.379,0.55,0.695,1.112,0.986,1.646c0.301,0.53,0.523,1.063,0.759,1.535
		c0.224,0.479,0.392,0.94,0.558,1.334c0.174,0.394,0.278,0.747,0.374,1.036c0.191,0.579,0.299,0.91,0.299,0.91L127.174,20.358z"/>
	<circle fill="#DFE6B7" cx="128.544" cy="5.338" r="5.339"/>
</g>
</svg>
