<?xml version="1.0" encoding="utf-8"?>
<!-- Generator: Adobe Illustrator 15.0.2, SVG Export Plug-In . SVG Version: 6.00 Build 0)  -->
<!DOCTYPE svg PUBLIC "-//W3C//DTD SVG 1.1//EN" "http://www.w3.org/Graphics/SVG/1.1/DTD/svg11.dtd">
<svg version="1.1" id="Capa_1" xmlns="http://www.w3.org/2000/svg" xmlns:xlink="http://www.w3.org/1999/xlink" x="0px" y="0px"
	 width="64px" height="64px" viewBox="0 0 64 64" enable-background="new 0 0 64 64" xml:space="preserve" fill="#fff">
<g>
	<g>
		<g>
			<path d="M54.274,9.726C48.323,3.777,40.413,0.5,31.999,0.5c-8.412,0-16.323,3.277-22.274,9.226C3.775,15.675,0.5,23.585,0.5,32
				c0,8.414,3.275,16.322,9.225,22.275c5.951,5.949,13.862,9.225,22.274,9.225c8.414,0,16.324-3.275,22.275-9.225
				C60.224,48.322,63.5,40.414,63.5,32C63.5,23.585,60.224,15.675,54.274,9.726z M31.999,58.205
				C17.549,58.205,5.794,46.447,5.794,32c0-14.451,11.755-26.205,26.205-26.205C46.448,5.796,58.205,17.55,58.205,32
				C58.205,46.447,46.448,58.205,31.999,58.205z"/>
			<path d="M22.359,48.727c-1.015-0.586-2.313-0.238-2.902,0.777c-0.586,1.016-0.236,2.316,0.778,2.902
				c0.334,0.191,0.7,0.285,1.061,0.285c0.734,0,1.448-0.383,1.842-1.063C23.724,50.611,23.378,49.313,22.359,48.727z"/>
			<path d="M21.259,15.581c0.362,0,0.729-0.092,1.065-0.286c1.014-0.589,1.359-1.89,0.771-2.904
				c-0.591-1.014-1.89-1.359-2.903-0.771c-1.016,0.588-1.36,1.887-0.772,2.903C19.814,15.201,20.526,15.581,21.259,15.581z"/>
			<path d="M12.365,23.151c0.336,0.192,0.698,0.284,1.059,0.284c0.735,0,1.45-0.381,1.843-1.063c0.587-1.015,0.236-2.316-0.778-2.9
				c-1.017-0.588-2.316-0.239-2.901,0.777C11,21.264,11.349,22.564,12.365,23.151z"/>
			<path d="M31.963,12.699c0,0,0,0,0.004,0c1.172-0.003,2.122-0.955,2.121-2.13c-0.004-1.174-0.956-2.122-2.129-2.119
				c-1.174,0-2.124,0.953-2.121,2.126C29.839,11.749,30.791,12.699,31.963,12.699z"/>
			<path d="M12.384,40.895c-1.015,0.588-1.359,1.885-0.771,2.902c0.395,0.68,1.107,1.059,1.841,1.059
				c0.361,0,0.728-0.09,1.063-0.285c1.016-0.588,1.363-1.889,0.772-2.902C14.7,40.65,13.399,40.307,12.384,40.895z"/>
			<path d="M12.698,32.022c-0.002-1.175-0.954-2.122-2.128-2.122c-1.173,0.003-2.124,0.955-2.121,2.125
				c0,1.176,0.952,2.124,2.125,2.124h0.001C11.749,34.148,12.701,33.193,12.698,32.022z"/>
			<path d="M32.01,51.301c-1.172,0.002-2.123,0.953-2.123,2.127s0.952,2.125,2.126,2.123c1.174,0,2.124-0.953,2.122-2.129
				C34.135,52.25,33.185,51.301,32.01,51.301z"/>
			<path d="M51.623,40.873c-1.016-0.588-2.313-0.24-2.902,0.773c-0.586,1.018-0.24,2.314,0.773,2.902
				c0.338,0.193,0.704,0.289,1.064,0.289c0.731,0,1.445-0.383,1.839-1.064C52.985,42.762,52.638,41.459,51.623,40.873z"/>
			<path d="M53.419,29.826c-1.172,0.003-2.121,0.957-2.119,2.13c0,0.011,0,0.023,0,0.033c0,0.006,0,0.009,0,0.012
				c0,1.171,0.95,2.123,2.126,2.123c1.173,0,2.122-0.951,2.122-2.123c0-0.009,0-0.017,0-0.024c0-0.01,0-0.021,0-0.031
				C55.546,30.772,54.594,29.823,53.419,29.826z"/>
			<path d="M41.618,15.262c0.333,0.193,0.699,0.282,1.06,0.282c0.733,0,1.448-0.38,1.841-1.063c0.586-1.017,0.236-2.316-0.78-2.902
				c-1.015-0.584-2.315-0.237-2.9,0.781C40.252,13.377,40.601,14.677,41.618,15.262z"/>
			<path d="M41.656,48.717c-1.016,0.588-1.363,1.885-0.773,2.902c0.394,0.68,1.105,1.059,1.841,1.059
				c0.359,0,0.726-0.09,1.062-0.285c1.015-0.588,1.36-1.887,0.773-2.9C43.97,48.477,42.671,48.127,41.656,48.717z"/>
			<path d="M50.537,23.372c0.362,0,0.729-0.094,1.067-0.287c1.014-0.591,1.357-1.891,0.768-2.906s-1.891-1.359-2.904-0.768
				s-1.358,1.89-0.769,2.903C49.093,22.992,49.805,23.372,50.537,23.372z"/>
			<path d="M45.348,33.49l-11.154-0.76L33.08,16.389c-0.04-0.562-0.508-0.998-1.07-0.998c-0.563,0-1.03,0.436-1.069,0.998
				l-1.094,16.042l-1.785-0.12c-0.238-0.017-0.473,0.066-0.647,0.228c-0.174,0.163-0.274,0.391-0.274,0.631v2.357
				c0,0.238,0.101,0.467,0.274,0.629c0.16,0.15,0.372,0.234,0.589,0.234c0.019,0,0.038,0,0.059-0.002l1.524-0.105l-0.111,1.607
				c-0.021,0.297,0.083,0.588,0.286,0.803c0.201,0.219,0.486,0.342,0.783,0.342h2.933c0,0,0.002,0,0.003,0
				c0.591,0,1.071-0.479,1.071-1.07c0-0.053-0.138-2.012-0.138-2.012l10.936-0.744c0.452-0.031,0.805-0.408,0.805-0.861
				C46.15,33.896,45.8,33.52,45.348,33.49z"/>
		</g>
	</g>
</g>
</svg>
