<?xml version="1.0" encoding="utf-8"?>
<!-- Generator: Adobe Illustrator 16.0.0, SVG Export Plug-In . SVG Version: 6.00 Build 0)  -->
<!DOCTYPE svg PUBLIC "-//W3C//DTD SVG 1.1//EN" "http://www.w3.org/Graphics/SVG/1.1/DTD/svg11.dtd">
<svg version="1.1" id="Capa_1" xmlns="http://www.w3.org/2000/svg" xmlns:xlink="http://www.w3.org/1999/xlink" x="0px" y="0px"
	 width="31px" height="31px" viewBox="0 0 31.507 31" enable-background="new 0 0 31.507 31" xml:space="preserve">
<path fill="#BCD7A2" d="M16.007,2.583c7.123,0,12.916,5.794,12.916,12.917c0,7.121-5.793,12.916-12.916,12.916
	S3.091,22.621,3.091,15.5C3.091,8.377,8.884,2.583,16.007,2.583 M16.007,0c-8.56,0-15.5,6.94-15.5,15.5c0,8.561,6.94,15.5,15.5,15.5
	s15.5-6.939,15.5-15.5C31.507,6.94,24.566,0,16.007,0 M21.819,22.359l-2.273-4.387l-1.332,0.652
	c-1.447,0.701-4.393-5.051-2.979-5.809l1.346-0.662L14.325,7.75l-1.359,0.671c-4.652,2.425,2.733,16.78,7.491,14.606L21.819,22.359z
	"/>
</svg>
