<?xml version="1.0" encoding="utf-8"?>
<!-- Generator: Adobe Illustrator 15.0.2, SVG Export Plug-In . SVG Version: 6.00 Build 0)  -->
<!DOCTYPE svg PUBLIC "-//W3C//DTD SVG 1.1//EN" "http://www.w3.org/Graphics/SVG/1.1/DTD/svg11.dtd">
<svg version="1.1" id="Capa_1" xmlns="http://www.w3.org/2000/svg" xmlns:xlink="http://www.w3.org/1999/xlink" x="0px" y="0px"
	 width="64px" height="64px" viewBox="0 0 64 64" enable-background="new 0 0 64 64" xml:space="preserve" fill="#bcd7a2">
<g>
	<g>
		<path d="M32.002,63.496C14.633,63.496,0.5,49.367,0.5,32c0-17.367,14.133-31.496,31.502-31.496C49.369,0.503,63.5,14.632,63.5,32
			C63.5,49.367,49.369,63.496,32.002,63.496z M32.002,2.993C16.005,2.993,2.991,16.005,2.991,32s13.014,29.006,29.011,29.006
			c15.995,0,29.007-13.012,29.007-29.006S47.997,2.993,32.002,2.993z"/>
	</g>
	<path d="M41.725,44.906l-4.282-8.258l-2.507,1.229c-2.719,1.318-8.263-9.505-5.6-10.932l2.53-1.247l-4.246-8.285l-2.558,1.264
		c-8.754,4.566,5.142,31.581,14.102,27.487L41.725,44.906z"/>
</g>
</svg>
