<?xml version="1.0" encoding="utf-8"?>
<!-- Generator: Adobe Illustrator 15.0.2, SVG Export Plug-In . SVG Version: 6.00 Build 0)  -->
<!DOCTYPE svg PUBLIC "-//W3C//DTD SVG 1.1//EN" "http://www.w3.org/Graphics/SVG/1.1/DTD/svg11.dtd">
<svg version="1.1" id="Capa_1" xmlns="http://www.w3.org/2000/svg" xmlns:xlink="http://www.w3.org/1999/xlink" x="0px" y="0px"
	 width="64px" height="64px" viewBox="0 0 64 64" enable-background="new 0 0 64 64" xml:space="preserve">
<g>
	<path d="M2.397,29.846h20.136c0.073,0,0.132,0.059,0.132,0.132c0,0.073-0.059,0.132-0.132,0.132H2.397
		c-0.073,0-0.131-0.059-0.131-0.132C2.266,29.905,2.325,29.846,2.397,29.846"/>
	<path d="M2.552,29.846c0.073,0,0.132,0.059,0.132,0.132c0,0.073-0.059,0.132-0.132,0.132c-0.878,0-1.423,0.183-1.939,0.652
		c-0.388,0.354-0.656,0.97-0.386,1.418c0.245,0.408,0.833,0.481,1.237,0.314c0.12-0.049,0.335-0.163,0.425-0.366
		c0.062-0.141,0.044-0.351-0.093-0.444c-0.061-0.041-0.077-0.123-0.036-0.183c0.04-0.06,0.123-0.076,0.183-0.035
		c0.227,0.153,0.309,0.49,0.187,0.768c-0.094,0.213-0.294,0.393-0.565,0.504C1.048,32.951,0.322,32.851,0,32.316
		c-0.346-0.574-0.043-1.315,0.435-1.75C0.999,30.055,1.611,29.846,2.552,29.846"/>
	<path d="M22.533,29.846c3.125,0,5.157,0.689,7.019,2.38c1.537,1.396,2.521,3.762,1.429,5.578c-1.011,1.681-3.312,1.987-4.953,1.312
		c-0.849-0.351-1.475-0.901-1.762-1.556c-0.313-0.711-0.202-1.741,0.527-2.232c0.06-0.041,0.142-0.025,0.183,0.035
		s0.025,0.143-0.036,0.184c-0.613,0.414-0.701,1.295-0.432,1.908c0.26,0.591,0.835,1.094,1.622,1.417
		c1.503,0.62,3.701,0.335,4.625-1.204c1.009-1.677,0.042-3.954-1.38-5.247c-1.831-1.663-3.749-2.312-6.841-2.312
		c-0.073,0-0.131-0.059-0.131-0.132C22.402,29.905,22.46,29.846,22.533,29.846"/>
	<path d="M22.575,31.01c1.731,0,4.227,0.33,5.904,1.977c0.506,0.497,0.918,1.114,1.191,1.784c0.301,0.735,0.376,1.324,0.254,1.969
		c-0.18,0.938-1.051,1.706-2.12,1.866c-0.601,0.09-1.184-0.012-1.644-0.286c-0.521-0.313-0.865-0.853-0.898-1.409
		c-0.004-0.072,0.052-0.136,0.124-0.14c0.075-0.004,0.135,0.051,0.139,0.124c0.028,0.471,0.324,0.931,0.771,1.198
		c0.407,0.243,0.93,0.332,1.469,0.251c0.945-0.141,1.743-0.837,1.899-1.653c0.114-0.599,0.046-1.126-0.238-1.82
		c-0.261-0.637-0.652-1.223-1.133-1.695c-1.892-1.858-4.896-1.974-6.518-1.878c-0.074,0.005-0.135-0.051-0.139-0.124
		c-0.004-0.073,0.051-0.135,0.124-0.139C22.004,31.019,22.279,31.01,22.575,31.01"/>
	<path d="M20.893,31.022c-0.17,0-0.17,0.264,0,0.264C21.062,31.286,21.062,31.022,20.893,31.022"/>
	<path d="M20.181,31.022c-0.17,0-0.171,0.264,0,0.264C20.351,31.286,20.351,31.022,20.181,31.022"/>
	<path d="M19.415,31.05c-0.17,0-0.17,0.264,0,0.264C19.584,31.313,19.585,31.05,19.415,31.05"/>
	<path d="M15.592,29.846c0.066,0,0.124,0.05,0.131,0.117c0.008,0.073-0.044,0.138-0.116,0.146c-1.898,0.211-3.597,0.441-5.152,1.119
		c-0.949,0.414-1.768,0.99-2.367,1.665c-0.407,0.459-0.718,0.969-0.875,1.435c-0.178,0.529-0.136,0.933,0.127,1.2
		c0.462,0.47,1.507,0.456,2.3,0.202c0.511-0.165,1.141-0.659,1.299-1.251c0.087-0.328-0.065-0.727-0.361-0.949
		c-0.138-0.103-0.418-0.246-0.748-0.045c-0.063,0.037-0.143,0.018-0.181-0.045c-0.039-0.062-0.019-0.143,0.044-0.181
		c0.338-0.206,0.719-0.184,1.044,0.06c0.379,0.284,0.571,0.8,0.458,1.228c-0.185,0.69-0.881,1.243-1.474,1.435
		c-0.843,0.271-2.006,0.302-2.568-0.268c-0.232-0.237-0.455-0.684-0.189-1.47c0.169-0.499,0.498-1.041,0.928-1.526
		c0.625-0.704,1.476-1.303,2.46-1.731c1.589-0.692,3.308-0.925,5.229-1.139C15.583,29.847,15.588,29.846,15.592,29.846"/>
	<path d="M31.768,34.871c0,0-0.015-0.07-0.041-0.195c-0.023-0.125-0.063-0.3-0.114-0.507c-0.056-0.208-0.127-0.447-0.211-0.7
		c-0.087-0.251-0.188-0.515-0.312-0.766c-0.062-0.125-0.128-0.248-0.199-0.363c-0.072-0.113-0.144-0.225-0.212-0.333
		c-0.065-0.108-0.127-0.213-0.186-0.312c-0.062-0.096-0.118-0.19-0.176-0.272c-0.055-0.087-0.112-0.155-0.161-0.226
		c-0.054-0.065-0.102-0.122-0.139-0.169c-0.087-0.085-0.141-0.146-0.141-0.146l0.021-0.049c0,0,0.076,0.003,0.215,0.032
		c0.065,0.021,0.146,0.048,0.234,0.09c0.082,0.048,0.186,0.098,0.273,0.174c0.098,0.07,0.188,0.16,0.279,0.259
		c0.09,0.099,0.177,0.211,0.249,0.336c0.074,0.123,0.133,0.259,0.187,0.399c0.051,0.141,0.104,0.281,0.147,0.425
		c0.094,0.284,0.16,0.573,0.215,0.845c0.054,0.271,0.081,0.527,0.101,0.746c0.013,0.221,0.026,0.402,0.022,0.528
		c0,0.127,0,0.2,0,0.2L31.768,34.871z"/>
	<path d="M31.706,37.516c0,0-0.027,0.083-0.075,0.228c-0.024,0.072-0.05,0.16-0.094,0.259c-0.042,0.099-0.083,0.214-0.14,0.333
		c-0.059,0.119-0.113,0.252-0.188,0.385c-0.073,0.134-0.152,0.273-0.247,0.411c-0.089,0.142-0.193,0.279-0.301,0.421
		c-0.111,0.136-0.226,0.276-0.354,0.404l-0.19,0.194c-0.068,0.061-0.135,0.122-0.201,0.182c-0.138,0.117-0.278,0.229-0.431,0.315
		c-0.299,0.179-0.621,0.268-0.895,0.313c-0.14,0.016-0.265,0.033-0.378,0.025c-0.114-0.007-0.21-0.005-0.291-0.025
		c-0.159-0.03-0.245-0.058-0.245-0.058l0-0.053c0,0,0.087-0.034,0.231-0.078c0.072-0.018,0.157-0.058,0.253-0.091
		c0.097-0.027,0.2-0.085,0.314-0.127c0.058-0.021,0.113-0.055,0.172-0.083c0.06-0.028,0.123-0.051,0.182-0.088
		c0.062-0.036,0.124-0.069,0.188-0.102c0.063-0.036,0.128-0.073,0.192-0.111c0.135-0.07,0.27-0.153,0.409-0.234
		c0.138-0.086,0.271-0.183,0.4-0.289c0.13-0.104,0.25-0.221,0.368-0.337c0.115-0.119,0.229-0.236,0.327-0.361
		c0.105-0.119,0.192-0.246,0.282-0.362s0.16-0.235,0.234-0.341c0.072-0.107,0.127-0.21,0.181-0.3
		c0.056-0.089,0.096-0.173,0.133-0.24c0.07-0.135,0.111-0.212,0.111-0.212L31.706,37.516z"/>
	<path d="M41.466,29.846h20.137c0.072,0,0.131,0.059,0.131,0.132c0,0.073-0.059,0.132-0.131,0.132H41.466
		c-0.073,0-0.132-0.059-0.132-0.132C41.334,29.905,41.393,29.846,41.466,29.846"/>
	<path d="M61.448,29.846c0.939,0,1.553,0.208,2.116,0.72c0.478,0.435,0.78,1.175,0.436,1.75c-0.322,0.535-1.048,0.635-1.565,0.422
		c-0.271-0.111-0.471-0.291-0.565-0.504c-0.122-0.277-0.04-0.615,0.188-0.768c0.06-0.042,0.143-0.025,0.183,0.035
		c0.041,0.06,0.025,0.143-0.035,0.183c-0.138,0.093-0.155,0.303-0.093,0.444c0.089,0.203,0.304,0.316,0.424,0.366
		c0.404,0.167,0.993,0.094,1.238-0.314c0.27-0.448,0.002-1.065-0.387-1.418c-0.517-0.469-1.06-0.652-1.938-0.652
		c-0.073,0-0.132-0.059-0.132-0.132C61.316,29.905,61.375,29.846,61.448,29.846"/>
	<path d="M41.466,29.846c0.073,0,0.132,0.059,0.132,0.132c0,0.073-0.059,0.132-0.132,0.132c-3.092,0-5.01,0.648-6.84,2.312
		c-1.423,1.292-2.389,3.57-1.381,5.247c0.925,1.539,3.121,1.824,4.626,1.204c0.785-0.323,1.361-0.826,1.621-1.417
		c0.27-0.613,0.182-1.494-0.433-1.908c-0.061-0.041-0.075-0.123-0.035-0.184c0.041-0.061,0.122-0.076,0.183-0.035
		c0.729,0.491,0.84,1.521,0.526,2.232c-0.287,0.654-0.912,1.206-1.762,1.556c-1.641,0.675-3.941,0.369-4.952-1.312
		c-1.093-1.816-0.108-4.182,1.429-5.578C36.309,30.536,38.342,29.846,41.466,29.846"/>
	<path d="M41.424,31.01c0.297,0,0.571,0.009,0.815,0.024c0.072,0.004,0.128,0.066,0.124,0.139c-0.005,0.073-0.065,0.129-0.14,0.124
		c-1.622-0.095-4.626,0.021-6.519,1.878c-0.48,0.473-0.872,1.059-1.133,1.695c-0.283,0.694-0.353,1.222-0.238,1.82
		c0.156,0.816,0.955,1.513,1.899,1.653c0.539,0.081,1.062-0.008,1.469-0.251c0.447-0.268,0.742-0.728,0.771-1.198
		c0.005-0.072,0.067-0.126,0.14-0.124c0.072,0.004,0.128,0.067,0.124,0.14c-0.034,0.558-0.379,1.097-0.898,1.409
		c-0.46,0.274-1.043,0.376-1.644,0.286c-1.068-0.16-1.939-0.928-2.119-1.866c-0.123-0.644-0.047-1.232,0.253-1.969
		c0.273-0.67,0.687-1.287,1.192-1.784C37.197,31.34,39.693,31.01,41.424,31.01"/>
	<path d="M43.107,31.022c-0.17,0-0.17,0.264,0,0.264S43.277,31.022,43.107,31.022"/>
	<path d="M43.818,31.022c-0.17,0-0.17,0.264,0,0.264S43.989,31.022,43.818,31.022"/>
	<path d="M44.584,31.05c-0.169,0-0.169,0.264,0,0.264C44.755,31.313,44.755,31.05,44.584,31.05"/>
	<path d="M48.407,29.846c0.005,0,0.01,0,0.015,0.001c1.92,0.213,3.639,0.446,5.229,1.139c0.983,0.429,1.835,1.028,2.46,1.731
		c0.429,0.485,0.759,1.027,0.927,1.526c0.266,0.786,0.043,1.232-0.189,1.47c-0.562,0.57-1.725,0.538-2.567,0.268
		c-0.593-0.191-1.289-0.744-1.474-1.435c-0.114-0.428,0.078-0.943,0.457-1.228c0.325-0.243,0.706-0.266,1.044-0.06
		c0.062,0.038,0.081,0.119,0.044,0.181c-0.038,0.063-0.118,0.082-0.182,0.045c-0.329-0.201-0.609-0.058-0.747,0.045
		c-0.298,0.223-0.448,0.621-0.361,0.949c0.158,0.592,0.787,1.086,1.299,1.251c0.793,0.254,1.837,0.267,2.3-0.202
		c0.264-0.268,0.306-0.671,0.128-1.2c-0.158-0.467-0.469-0.976-0.876-1.435c-0.6-0.675-1.418-1.251-2.367-1.665
		c-1.556-0.678-3.254-0.907-5.152-1.119c-0.072-0.008-0.124-0.073-0.116-0.146C48.284,29.896,48.341,29.846,48.407,29.846"/>
	<path d="M32.179,34.866c0,0,0-0.073,0.001-0.2c-0.004-0.126,0.01-0.308,0.022-0.528c0.019-0.219,0.046-0.476,0.1-0.746
		c0.055-0.271,0.122-0.561,0.216-0.845c0.043-0.143,0.097-0.284,0.147-0.424c0.053-0.14,0.112-0.275,0.187-0.4
		c0.071-0.124,0.159-0.236,0.249-0.336c0.091-0.099,0.182-0.188,0.278-0.258c0.089-0.077,0.191-0.126,0.273-0.174
		c0.089-0.042,0.17-0.069,0.234-0.09c0.139-0.028,0.215-0.032,0.215-0.032l0.021,0.049c0,0-0.053,0.062-0.139,0.146
		c-0.039,0.047-0.087,0.104-0.141,0.17c-0.049,0.07-0.106,0.138-0.161,0.225c-0.057,0.082-0.113,0.176-0.175,0.272
		c-0.059,0.099-0.121,0.204-0.186,0.312c-0.068,0.108-0.14,0.22-0.212,0.333c-0.072,0.115-0.138,0.238-0.199,0.363
		c-0.124,0.251-0.225,0.515-0.313,0.766c-0.083,0.252-0.154,0.492-0.211,0.699c-0.05,0.207-0.091,0.383-0.114,0.508
		c-0.026,0.125-0.041,0.195-0.041,0.195L32.179,34.866z"/>
	<path d="M32.342,37.494c0,0,0.042,0.077,0.112,0.212c0.037,0.067,0.077,0.151,0.132,0.24c0.055,0.09,0.109,0.192,0.181,0.3
		c0.074,0.105,0.145,0.225,0.235,0.341c0.09,0.116,0.177,0.243,0.282,0.362c0.098,0.125,0.212,0.242,0.326,0.361
		c0.118,0.116,0.238,0.232,0.369,0.337c0.128,0.106,0.263,0.203,0.4,0.289c0.14,0.081,0.273,0.164,0.407,0.234
		c0.066,0.038,0.13,0.075,0.193,0.111c0.065,0.032,0.128,0.065,0.188,0.102c0.06,0.037,0.122,0.06,0.182,0.088
		s0.115,0.063,0.172,0.083c0.114,0.042,0.217,0.1,0.314,0.127c0.097,0.033,0.182,0.073,0.254,0.091
		c0.144,0.044,0.23,0.078,0.23,0.078l0.001,0.053c0,0-0.086,0.027-0.245,0.058c-0.08,0.021-0.176,0.019-0.289,0.025
		c-0.115,0.008-0.24-0.01-0.38-0.025c-0.272-0.046-0.596-0.135-0.895-0.313c-0.151-0.086-0.293-0.198-0.429-0.315
		c-0.067-0.06-0.135-0.121-0.202-0.182l-0.191-0.194c-0.127-0.128-0.241-0.269-0.353-0.404c-0.107-0.141-0.213-0.279-0.301-0.421
		c-0.095-0.138-0.174-0.277-0.247-0.411c-0.075-0.133-0.131-0.266-0.189-0.385c-0.056-0.119-0.098-0.234-0.14-0.333
		c-0.043-0.099-0.069-0.187-0.094-0.259c-0.048-0.145-0.074-0.228-0.074-0.228L32.342,37.494z"/>
	<circle cx="32" cy="41.251" r="1.335"/>
</g>
</svg>
