<?xml version="1.0" encoding="utf-8"?>
<!-- Generator: Adobe Illustrator 15.0.2, SVG Export Plug-In . SVG Version: 6.00 Build 0)  -->
<!DOCTYPE svg PUBLIC "-//W3C//DTD SVG 1.1//EN" "http://www.w3.org/Graphics/SVG/1.1/DTD/svg11.dtd">
<svg version="1.1" id="Capa_1" xmlns="http://www.w3.org/2000/svg" xmlns:xlink="http://www.w3.org/1999/xlink" x="0px" y="0px"
	 width="64px" height="64px" viewBox="0 0 64 64" enable-background="new 0 0 64 64" xml:space="preserve" fill="#DEE6B5">
<g>
	<path d="M63.359,41.528l-7.727-12.232V6.794l-3.145-3.145H11.512L8.367,6.794v22.502L0.641,41.528H63.359z M49.343,9.94v15.29
		c-3.394-0.99-8.855-1.931-17.343-1.931c-8.489,0-13.949,0.941-17.343,1.931V9.94H49.343z"/>
	<polygon points="0.5,45.399 0.5,51.688 7.828,51.688 7.828,60.351 14.118,60.351 14.118,51.688 49.882,51.688 49.882,60.351 
		56.172,60.351 56.172,51.688 63.5,51.688 63.5,45.399 	"/>
	<path d="M39.052,21.143v-1.475v-3.485c0-2.175-3.158-3.939-7.052-3.939s-7.05,1.765-7.05,3.939v4.961c0,0,4.421-0.392,7.05-0.392
		S39.052,21.143,39.052,21.143z"/>
</g>
</svg>
