<?xml version="1.0" encoding="utf-8"?>
<!-- Generator: Adobe Illustrator 15.0.2, SVG Export Plug-In . SVG Version: 6.00 Build 0)  -->
<!DOCTYPE svg PUBLIC "-//W3C//DTD SVG 1.1//EN" "http://www.w3.org/Graphics/SVG/1.1/DTD/svg11.dtd">
<svg version="1.1" id="Capa_1" xmlns="http://www.w3.org/2000/svg" xmlns:xlink="http://www.w3.org/1999/xlink" x="0px" y="0px"
	 width="64px" height="64px" viewBox="0 0 64 64" enable-background="new 0 0 64 64" xml:space="preserve">
<g>
	<path d="M25.956,22.124c0,4.952-1.114,8.784-3.342,11.497c-2.229,2.712-5.402,4.068-9.522,4.068c-3.871,0-6.938-1.401-9.2-4.204
		C1.63,30.684,0.5,26.896,0.5,22.124c0-4.95,1.102-8.76,3.309-11.428c2.204-2.668,5.301-4.001,9.283-4.001
		c3.938,0,7.068,1.384,9.387,4.153C24.797,13.616,25.956,17.376,25.956,22.124z M10.661,22.261c0,2.588,0.214,4.456,0.643,5.604
		c0.428,1.148,1.068,1.723,1.925,1.723c0.854,0,1.491-0.563,1.907-1.688c0.417-1.126,0.624-3.005,0.624-5.638
		c0-2.589-0.207-4.457-0.624-5.605c-0.416-1.147-1.053-1.722-1.907-1.722c-0.879,0-1.525,0.586-1.942,1.755
		C10.869,17.86,10.661,19.717,10.661,22.261z M50.567,7.404L23.188,56.766H13.16L40.54,7.404H50.567z M63.5,41.775
		c0,4.929-1.12,8.749-3.36,11.461c-2.24,2.713-5.408,4.068-9.504,4.068c-3.871,0-6.938-1.4-9.199-4.203
		c-2.262-2.803-3.395-6.578-3.395-11.326c0-4.952,1.104-8.762,3.311-11.43c2.205-2.667,5.3-4.001,9.283-4.001
		c3.939,0,7.066,1.385,9.386,4.153C62.34,33.267,63.5,37.025,63.5,41.775z M48.205,41.91c0,2.587,0.213,4.456,0.641,5.604
		c0.428,1.148,1.068,1.722,1.925,1.722c0.969,0,1.638-0.658,2.009-1.976c0.372-1.315,0.558-3.099,0.558-5.35
		s-0.186-4.035-0.558-5.353c-0.371-1.315-1.04-1.975-2.009-1.975c-0.877,0-1.523,0.585-1.94,1.756
		C48.413,37.509,48.205,39.367,48.205,41.91z"/>
</g>
</svg>
