<?xml version="1.0" encoding="utf-8"?>
<!-- Generator: Adobe Illustrator 16.0.0, SVG Export Plug-In . SVG Version: 6.00 Build 0)  -->
<!DOCTYPE svg PUBLIC "-//W3C//DTD SVG 1.1//EN" "http://www.w3.org/Graphics/SVG/1.1/DTD/svg11.dtd">
<svg version="1.1" id="Capa_1" xmlns="http://www.w3.org/2000/svg" xmlns:xlink="http://www.w3.org/1999/xlink" x="0px" y="0px"
	 width="30px" height="20px" viewBox="0 0 40 20" enable-background="new 0 0 40 20" xml:space="preserve">
<g>
	<rect y="17.672" fill="#E70A0A" width="40" height="2.328"/>
	<rect y="12.189" fill="#E70A0A" width="40" height="2.327"/>
	<rect y="6.105" fill="#E70A0A" width="40" height="2.328"/>
	<rect fill="#E70A0A" width="40" height="2.328"/>
	<rect fill="#002868" width="16.484" height="13.783"/>
	<polygon fill="#FFFFFF" points="1.82,2.328 2.074,2.923 2.635,3.019 2.229,3.481 2.326,4.138 1.82,3.828 1.318,4.138 1.416,3.481 
		1.008,3.019 1.568,2.923 	"/>
	<polygon fill="#FFFFFF" points="1.82,5.748 2.074,6.344 2.635,6.439 2.229,6.902 2.326,7.558 1.82,7.249 1.318,7.558 1.416,6.902 
		1.008,6.439 1.568,6.344 	"/>
	<polygon fill="#FFFFFF" points="1.82,9.168 2.074,9.764 2.635,9.859 2.229,10.321 2.326,10.978 1.82,10.667 1.318,10.978 
		1.416,10.321 1.008,9.859 1.568,9.764 	"/>
	<polygon fill="#FFFFFF" points="7.828,2.328 8.08,2.923 8.643,3.019 8.234,3.481 8.33,4.138 7.828,3.828 7.326,4.138 7.42,3.481 
		7.014,3.019 7.574,2.923 	"/>
	<polygon fill="#FFFFFF" points="7.828,5.748 8.08,6.344 8.643,6.439 8.234,6.902 8.33,7.558 7.828,7.249 7.326,7.558 7.42,6.902 
		7.014,6.439 7.574,6.344 	"/>
	<polygon fill="#FFFFFF" points="4.828,4.278 5.078,4.873 5.639,4.968 5.232,5.432 5.33,6.087 4.828,5.778 4.326,6.087 4.42,5.432 
		4.016,4.968 4.574,4.873 	"/>
	<polygon fill="#FFFFFF" points="4.828,7.697 5.078,8.292 5.639,8.388 5.232,8.852 5.33,9.507 4.828,9.198 4.326,9.507 4.42,8.852 
		4.016,8.388 4.574,8.292 	"/>
	<polygon fill="#FFFFFF" points="10.828,4.278 11.078,4.873 11.641,4.968 11.234,5.432 11.33,6.087 10.828,5.778 10.326,6.087 
		10.42,5.432 10.016,4.968 10.578,4.873 	"/>
	<polygon fill="#FFFFFF" points="10.828,7.697 11.078,8.292 11.641,8.388 11.234,8.852 11.33,9.507 10.828,9.198 10.326,9.507 
		10.42,8.852 10.016,8.388 10.578,8.292 	"/>
	<polygon fill="#FFFFFF" points="7.828,9.168 8.08,9.764 8.643,9.859 8.234,10.321 8.33,10.978 7.828,10.667 7.326,10.978 
		7.42,10.321 7.014,9.859 7.574,9.764 	"/>
	<polygon fill="#FFFFFF" points="13.834,2.328 14.086,2.923 14.645,3.019 14.24,3.481 14.338,4.138 13.834,3.828 13.332,4.138 
		13.428,3.481 13.021,3.019 13.582,2.923 	"/>
	<polygon fill="#FFFFFF" points="13.834,5.748 14.086,6.344 14.645,6.439 14.24,6.902 14.338,7.558 13.834,7.249 13.332,7.558 
		13.428,6.902 13.021,6.439 13.582,6.344 	"/>
	<polygon fill="#FFFFFF" points="13.834,9.168 14.086,9.764 14.645,9.859 14.24,10.321 14.338,10.978 13.834,10.667 13.332,10.978 
		13.428,10.321 13.021,9.859 13.582,9.764 	"/>
</g>
</svg>
