<?xml version="1.0" encoding="utf-8"?>
<!-- Generator: Adobe Illustrator 15.0.2, SVG Export Plug-In . SVG Version: 6.00 Build 0)  -->
<!DOCTYPE svg PUBLIC "-//W3C//DTD SVG 1.1//EN" "http://www.w3.org/Graphics/SVG/1.1/DTD/svg11.dtd">
<svg version="1.1" id="Capa_1" xmlns="http://www.w3.org/2000/svg" xmlns:xlink="http://www.w3.org/1999/xlink" x="0px" y="0px"
	 width="64px" height="64px" viewBox="0 0 64 64" enable-background="new 0 0 64 64" xml:space="preserve" fill="#fff">
<g>
	<g>
		<path d="M53.129,22.403c1.936-1.896,3.137-4.538,3.137-7.46c0-0.548-0.043-1.086-0.123-1.611l-6.385,1.831l-0.896,1.032
			L53.129,22.403z"/>
		<path d="M47.432,4.622v7.422h1.506l6.221-1.784C53.672,7.301,50.822,5.146,47.432,4.622z"/>
		<path d="M40.898,24.157c1.467,0.785,3.143,1.231,4.922,1.231c1.686,0,3.277-0.399,4.688-1.108l-3.965-5.768L40.898,24.157z"/>
		<path d="M44.209,4.622c-3.236,0.501-5.979,2.487-7.516,5.239l6.525,2.183h0.99V4.622z"/>
		<path d="M56.033,4.73C53.305,2.002,49.678,0.5,45.82,0.5s-7.484,1.502-10.213,4.23c-2.031,2.031-3.382,4.561-3.94,7.313h2.649
			c1.297-5.145,5.963-8.965,11.504-8.965c6.543,0,11.863,5.322,11.863,11.864c0,6.542-5.32,11.864-11.863,11.864
			c-2.172,0-4.209-0.587-5.961-1.61l-1.879,1.879c2.314,1.503,5.016,2.31,7.84,2.31c3.857,0,7.484-1.502,10.213-4.23
			c2.729-2.728,4.23-6.355,4.23-10.213S58.762,7.458,56.033,4.73z"/>
		<polygon points="27.695,59.424 27.695,33.983 46.576,15.104 46.576,13.708 3.737,13.708 3.737,15.104 22.617,33.983 
			22.617,59.424 15.672,59.424 14.179,63.5 36.133,63.5 34.639,59.424 		"/>
		<polygon points="18.707,12.044 9.554,2.891 7.72,4.726 15.039,12.044 		"/>
	</g>
</g>
</svg>
