<?xml version="1.0" encoding="utf-8"?>
<!-- Generator: Adobe Illustrator 15.0.2, SVG Export Plug-In . SVG Version: 6.00 Build 0)  -->
<!DOCTYPE svg PUBLIC "-//W3C//DTD SVG 1.1//EN" "http://www.w3.org/Graphics/SVG/1.1/DTD/svg11.dtd">
<svg version="1.1" id="Capa_1" xmlns="http://www.w3.org/2000/svg" xmlns:xlink="http://www.w3.org/1999/xlink" x="0px" y="0px"
	 width="64px" height="64px" viewBox="0 0 64 64" enable-background="new 0 0 64 64" xml:space="preserve" fill="#ffffff">
<g>
	<g>
		<path d="M8.515,60.769h8.579c0.119,0.747,0.738,1.332,1.519,1.332h19.504c0.787,0,1.403-0.582,1.522-1.332h8.579
			c1.451,0,2.627-1.176,2.627-2.627H5.891C5.891,59.593,7.065,60.769,8.515,60.769z"/>
		<path d="M61.176,33.778c-2.187-1.771-5.265-1.8-7.292-1.576c0.057-1.411,0.091-2.859,0.091-4.361H0.5
			c0,14.451,2.187,24.88,16.028,28.771h21.418c5.48-1.537,9.116-4.124,11.526-7.56c5.251-0.103,13.702-2.17,14.018-9.423
			C63.627,36.454,62.307,34.693,61.176,33.778z M51.674,44.905c1.006-2.584,1.602-5.492,1.932-8.69c1.42-0.232,3.864-0.38,5.1,0.625
			c0.228,0.188,0.935,0.762,0.853,2.621C59.393,43.219,54.729,44.479,51.674,44.905z"/>
		<path d="M22.284,25.811c0,0,10.179-0.747,5.513-9.327c-3.743-6.89-2.892-10.933,1.902-14.584c0,0-15.698,3.998-6.543,16.371
			C26.513,23.663,22.284,25.811,22.284,25.811z"/>
		<path d="M29.143,25.123c0,0,8.156-1.715,3.718-8.273c-1.61-2.845,0.61-3.859,0.61-3.859s-5.248,0.166-3.033,4.676
			C32.21,21.292,31.688,23.351,29.143,25.123z"/>
	</g>
</g>
</svg>
