<?xml version="1.0" encoding="utf-8"?>
<!-- Generator: Adobe Illustrator 15.0.2, SVG Export Plug-In . SVG Version: 6.00 Build 0)  -->
<!DOCTYPE svg PUBLIC "-//W3C//DTD SVG 1.1//EN" "http://www.w3.org/Graphics/SVG/1.1/DTD/svg11.dtd">
<svg version="1.1" id="Capa_1" xmlns="http://www.w3.org/2000/svg" xmlns:xlink="http://www.w3.org/1999/xlink" x="0px" y="0px"
	 width="64px" height="64px" viewBox="0 0 64 64" enable-background="new 0 0 64 64" xml:space="preserve" fill="#fff">
<g>
	<g>
		<path d="M60.761,51.433H3.238c-1.512,0-2.738,1.229-2.738,2.738c0,1.513,1.228,2.738,2.738,2.738h57.523
			c1.514,0,2.738-1.226,2.738-2.738C63.497,52.659,62.274,51.433,60.761,51.433z"/>
		<path d="M5.271,48.344h12.305c0.242,0,0.473-0.127,0.629-0.308c0.155-0.187,0.246-0.446,0.207-0.687
			c-0.462-2.922-2.682-5.255-5.573-5.822v-1.026c0-0.756-0.637-1.366-1.395-1.366s-1.395,0.61-1.395,1.366v1.026
			c-2.888,0.564-5.133,2.897-5.595,5.822c-0.038,0.24,0.031,0.5,0.189,0.687C4.801,48.22,5.03,48.344,5.271,48.344z"/>
		<path d="M24.047,48.344h33.942c0.32,0,0.593-0.251,0.644-0.567c0.403-2.538,1.935-13.184-0.087-16.269
			c-1.365-2.078-4.87-3.504-8.674-4.414c-0.028,0.022-8.871,19.875-8.871,19.875s-8.609-19.907-8.631-19.925
			c-3.82,0.909-7.506,2.379-8.874,4.464c-2.024,3.082-0.492,13.73-0.089,16.269C23.457,48.093,23.727,48.344,24.047,48.344z"/>
		<path d="M41.02,26.073c5.233,0,9.491-4.259,9.491-9.492c0-5.232-4.258-9.491-9.491-9.491s-9.491,4.259-9.491,9.491
			C31.529,21.814,35.786,26.073,41.02,26.073z M34.517,15.639c0.15-0.018,0.319-0.041,0.504-0.07
			c2.037-0.324,5.889-1.361,7.368-4.65c0,0,1.401,3.108,4.639,3.006c0.27,0.728,0.562,1.712,0.562,2.657
			c0,3.623-2.949,6.571-6.57,6.571c-3.624,0-6.574-2.949-6.574-6.571C34.448,16.261,34.47,15.946,34.517,15.639z"/>
		<path d="M39.963,27.325c-0.28,0-0.524,0.274-0.524,0.594v11.41c0,0.124,0.043,0.243,0.105,0.341l1.063,1.66
			c0.094,0.148,0.247,0.235,0.405,0.238c0.159,0.002,0.313-0.081,0.409-0.225l1.115-1.669c0.067-0.103,0.09-0.227,0.09-0.354V27.919
			c0-0.319-0.199-0.594-0.479-0.594H39.963z"/>
	</g>
</g>
</svg>
