<?xml version="1.0" encoding="utf-8"?>
<!-- Generator: Adobe Illustrator 15.0.2, SVG Export Plug-In . SVG Version: 6.00 Build 0)  -->
<!DOCTYPE svg PUBLIC "-//W3C//DTD SVG 1.1//EN" "http://www.w3.org/Graphics/SVG/1.1/DTD/svg11.dtd">
<svg version="1.1" id="Capa_1" xmlns="http://www.w3.org/2000/svg" xmlns:xlink="http://www.w3.org/1999/xlink" x="0px" y="0px"
	 width="64px" height="64px" viewBox="0 0 64 64" enable-background="new 0 0 64 64" xml:space="preserve" fill="#fff">
<g>
	<g>
		<g>
			<polygon points="4.608,44.993 4.608,25.586 0.5,25.586 0.5,49.104 2.692,49.104 2.692,63.5 6.799,63.5 6.799,54.675 
				15.229,54.675 15.229,63.5 19.338,63.5 19.338,49.104 21.487,49.104 21.487,44.993 			"/>
		</g>
	</g>
	<g>
		<g>
			<polygon points="59.392,25.586 59.392,44.993 42.513,44.993 42.513,49.104 44.662,49.104 44.662,63.5 48.771,63.5 48.771,54.675 
				57.201,54.675 57.201,63.5 61.309,63.5 61.309,49.104 63.5,49.104 63.5,25.586 			"/>
		</g>
	</g>
	<g>
		<g>
			<path d="M34.054,32.685V17.62h29.228l-3.205-3.452C53.652,7.25,44.259,3.097,34.054,2.604V0.5h-4.107v2.104
				C19.741,3.097,10.348,7.25,3.924,14.168L0.719,17.62h29.227v15.065H14.186h-3.313v4.108h3.313v5.478h15.761v17.121h-5.127V63.5
				h14.361v-4.108h-5.127V42.271h15.761v-5.476h3.313v-4.11h-3.313H34.054L34.054,32.685z"/>
		</g>
	</g>
</g>
</svg>
