<?xml version="1.0" encoding="utf-8"?>
<!-- Generator: Adobe Illustrator 15.0.2, SVG Export Plug-In . SVG Version: 6.00 Build 0)  -->
<!DOCTYPE svg PUBLIC "-//W3C//DTD SVG 1.1//EN" "http://www.w3.org/Graphics/SVG/1.1/DTD/svg11.dtd">
<svg version="1.1" id="Capa_1" xmlns="http://www.w3.org/2000/svg" xmlns:xlink="http://www.w3.org/1999/xlink" x="0px" y="0px"
	 width="64px" height="64px" viewBox="0 0 64 64" enable-background="new 0 0 64 64" xml:space="preserve" fill="#fff">
<g>
	<path d="M33.008,9.497C20.581,9.497,10.506,19.571,10.506,32s10.074,22.503,22.501,22.503c12.43,0,22.504-10.074,22.504-22.503
		S45.438,9.497,33.008,9.497z M49.397,27.889c0.06,0.237,0.133,0.469,0.182,0.709c0.071,0.346,0.112,0.701,0.161,1.054
		c0.029,0.21,0.073,0.414,0.095,0.622c0.057,0.569,0.088,1.144,0.088,1.726c0,0.582-0.031,1.159-0.088,1.727
		c-0.021,0.209-0.065,0.413-0.095,0.621c-0.049,0.352-0.09,0.709-0.161,1.053c-0.049,0.242-0.123,0.472-0.182,0.711
		c-0.075,0.304-0.141,0.61-0.232,0.905c-0.081,0.263-0.187,0.512-0.279,0.766c-0.096,0.263-0.18,0.528-0.287,0.784
		c-0.113,0.269-0.25,0.525-0.377,0.786c-0.11,0.228-0.21,0.466-0.332,0.69c-0.149,0.274-0.32,0.536-0.484,0.802
		c-0.119,0.193-0.229,0.397-0.356,0.588c-0.188,0.278-0.397,0.538-0.599,0.805c-0.126,0.162-0.239,0.335-0.37,0.493
		c-0.225,0.273-0.471,0.53-0.71,0.788c-0.128,0.136-0.245,0.278-0.375,0.411c-0.26,0.262-0.538,0.502-0.815,0.745
		c-0.128,0.112-0.247,0.236-0.379,0.344c-0.292,0.245-0.604,0.467-0.913,0.689c-0.128,0.093-0.25,0.195-0.38,0.285
		c-0.321,0.217-0.659,0.413-0.994,0.608c-0.134,0.078-0.259,0.165-0.393,0.238c-0.347,0.19-0.705,0.354-1.064,0.521
		c-0.137,0.062-0.267,0.137-0.405,0.195c-0.362,0.154-0.738,0.282-1.111,0.413c-0.147,0.05-0.289,0.113-0.438,0.157
		c-0.372,0.118-0.755,0.211-1.139,0.302c-0.158,0.038-0.313,0.089-0.476,0.123c-0.374,0.077-0.758,0.127-1.144,0.182
		c-0.178,0.023-0.35,0.063-0.53,0.081c-0.371,0.038-0.752,0.05-1.131,0.063c-0.186,0.008-0.366,0.033-0.554,0.033v-0.002
		c-0.04,0-0.08,0.005-0.122,0.005c-9.339,0-16.912-7.572-16.912-16.912c0-9.34,7.572-16.913,16.912-16.913
		c0.042,0,0.082,0.006,0.122,0.006v-0.002c0.151,0,0.299,0.02,0.45,0.025c0.417,0.013,0.833,0.027,1.242,0.071
		c0.146,0.016,0.288,0.047,0.434,0.067c0.416,0.055,0.833,0.111,1.238,0.197c0.134,0.028,0.262,0.071,0.395,0.102
		c0.412,0.097,0.82,0.194,1.219,0.321c0.124,0.039,0.241,0.09,0.364,0.133c0.399,0.137,0.798,0.275,1.182,0.438
		c0.12,0.052,0.23,0.117,0.349,0.168c0.38,0.173,0.758,0.347,1.122,0.547c0.117,0.065,0.228,0.141,0.346,0.208
		c0.353,0.205,0.703,0.411,1.039,0.639c0.119,0.082,0.229,0.174,0.347,0.26c0.321,0.231,0.644,0.461,0.947,0.713
		c0.122,0.101,0.232,0.216,0.352,0.32c0.285,0.251,0.572,0.5,0.842,0.77c0.126,0.126,0.237,0.265,0.358,0.396
		c0.248,0.264,0.497,0.523,0.726,0.804c0.128,0.153,0.236,0.318,0.358,0.479c0.207,0.271,0.419,0.536,0.61,0.819
		c0.126,0.187,0.232,0.387,0.352,0.579c0.164,0.27,0.339,0.532,0.489,0.811c0.12,0.223,0.22,0.458,0.332,0.685
		c0.126,0.265,0.264,0.521,0.377,0.791c0.107,0.256,0.191,0.523,0.287,0.784c0.094,0.256,0.198,0.504,0.279,0.765
		C49.257,27.278,49.322,27.586,49.397,27.889z M48.921,32c0,8.787-7.124,15.911-15.913,15.911c-8.786,0-15.909-7.124-15.909-15.911
		c0-8.787,7.123-15.91,15.909-15.91C41.797,16.09,48.921,23.213,48.921,32z M63.5,14.43v37.178c0,0.997-0.632,1.823-1.478,2.068
		v0.009c-0.16,0.045-0.327,0.079-0.5,0.079c-1.087,0-2.103-0.978-1.976-2.156c0.381-3.545,2.435-11.163,1.38-14.202
		c-0.603-1.739-2.815-4.882-2.815-10.096c0-9.703,2.271-13.172,3.846-13.98c0.021-0.011,0.043-0.013,0.065-0.022
		C62.715,13.01,63.5,13.576,63.5,14.43z M7.684,13.434c0.464,2.999,0.908,8.623,0.908,11.536c0,3.58-0.729,3.538-2.851,4.385
		l0.781,22.358c0,1.184-0.89,2.154-1.977,2.154c-0.098,0-0.192-0.017-0.285-0.032v-0.01c-0.952-0.153-1.692-1.036-1.692-2.112
		l0.783-22.358C1.23,28.508,0.5,28.55,0.5,24.97c0-2.914,0.44-8.602,0.897-11.536h0.5l0.114,12.645H3.05l0.261-12.645H3.8
		l0.227,12.645h0.235h0.157h0.648l0.248-12.645h0.538l0.232,12.645h1.038l0.089-12.645H7.684z"/>
</g>
</svg>
