<?xml version="1.0" encoding="utf-8"?>
<!-- Generator: Adobe Illustrator 16.0.0, SVG Export Plug-In . SVG Version: 6.00 Build 0)  -->
<!DOCTYPE svg PUBLIC "-//W3C//DTD SVG 1.1//EN" "http://www.w3.org/Graphics/SVG/1.1/DTD/svg11.dtd">
<svg version="1.1" id="Capa_1" xmlns="http://www.w3.org/2000/svg" xmlns:xlink="http://www.w3.org/1999/xlink" x="0px" y="0px"
	 width="257.088px" height="50.94px" viewBox="0 0 257.088 50.94" enable-background="new 0 0 257.088 50.94" xml:space="preserve">
<g>
	<path fill="#DFE6B7" d="M10.181,0h80.514c0.291,0,0.526,0.234,0.526,0.526c0,0.292-0.235,0.527-0.526,0.527H10.181
		c-0.292,0-0.525-0.236-0.525-0.527C9.655,0.234,9.889,0,10.181,0"/>
	<path fill="#DFE6B7" d="M10.797,0c0.292,0,0.528,0.234,0.528,0.526c0,0.292-0.236,0.527-0.528,0.527
		c-3.513,0-5.688,0.73-7.753,2.607C1.492,5.074,0.42,7.541,1.499,9.333c0.98,1.632,3.334,1.923,4.949,1.255
		c0.48-0.197,1.34-0.65,1.697-1.463c0.249-0.564,0.177-1.402-0.371-1.774C7.531,7.188,7.468,6.859,7.632,6.618
		c0.161-0.239,0.49-0.304,0.732-0.142C9.272,7.09,9.6,8.439,9.111,9.549c-0.376,0.854-1.179,1.569-2.262,2.015
		c-2.063,0.85-4.968,0.452-6.254-1.688C-0.787,7.579,0.423,4.617,2.335,2.88C4.587,0.834,7.038,0,10.797,0"/>
	<path fill="#DFE6B7" d="M90.693,0c12.492,0,20.621,2.757,28.061,9.518c6.147,5.585,10.082,15.039,5.713,22.302
		c-4.041,6.724-13.242,7.947-19.802,5.246c-3.396-1.399-5.896-3.607-7.045-6.218c-1.252-2.846-0.808-6.965,2.104-8.93
		c0.241-0.162,0.568-0.1,0.731,0.141c0.162,0.243,0.099,0.569-0.143,0.732c-2.455,1.657-2.806,5.181-1.729,7.632
		c1.039,2.359,3.34,4.372,6.482,5.666c6.012,2.479,14.795,1.34,18.496-4.814c4.034-6.703,0.167-15.812-5.519-20.979
		c-7.32-6.65-14.988-9.243-27.352-9.243c-0.292,0-0.526-0.236-0.526-0.527C90.167,0.234,90.401,0,90.693,0"/>
	<path fill="#DFE6B7" d="M90.86,4.652c6.921,0,16.9,1.319,23.604,7.904c2.024,1.987,3.673,4.455,4.766,7.132
		c1.204,2.943,1.507,5.299,1.016,7.873c-0.719,3.753-4.202,6.821-8.474,7.461c-2.4,0.361-4.732-0.047-6.57-1.145
		c-2.083-1.248-3.459-3.407-3.592-5.633c-0.018-0.291,0.205-0.54,0.495-0.557c0.3-0.016,0.541,0.204,0.557,0.494
		c0.112,1.885,1.294,3.721,3.083,4.791c1.626,0.975,3.716,1.333,5.871,1.008c3.774-0.566,6.968-3.347,7.594-6.616
		c0.457-2.391,0.181-4.499-0.954-7.277c-1.04-2.545-2.606-4.888-4.529-6.777c-7.564-7.429-19.578-7.894-26.062-7.509
		c-0.3,0.02-0.541-0.204-0.558-0.495c-0.019-0.29,0.203-0.54,0.495-0.557C88.577,4.69,89.675,4.652,90.86,4.652"/>
	<path fill="#DFE6B7" d="M84.131,4.703c-0.679,0-0.681,1.055,0,1.055C84.81,5.758,84.811,4.703,84.131,4.703"/>
	<path fill="#DFE6B7" d="M81.288,4.703c-0.68,0-0.682,1.055,0,1.055C81.965,5.758,81.967,4.703,81.288,4.703"/>
	<path fill="#DFE6B7" d="M78.225,4.813c-0.679,0-0.682,1.054,0,1.054C78.901,5.866,78.904,4.813,78.225,4.813"/>
	<path fill="#DFE6B7" d="M62.94,0c0.264,0,0.493,0.199,0.523,0.468c0.032,0.29-0.178,0.55-0.467,0.583
		c-7.59,0.844-14.381,1.763-20.6,4.472c-3.796,1.655-7.069,3.957-9.467,6.658c-1.627,1.835-2.869,3.872-3.5,5.735
		c-0.714,2.116-0.543,3.73,0.512,4.798c1.847,1.877,6.023,1.826,9.193,0.807c2.045-0.657,4.562-2.633,5.194-5.001
		c0.351-1.309-0.257-2.905-1.442-3.793c-0.551-0.412-1.672-0.984-2.993-0.182c-0.25,0.151-0.572,0.071-0.724-0.177
		c-0.152-0.249-0.072-0.573,0.178-0.724c1.349-0.821,2.871-0.734,4.172,0.239c1.517,1.135,2.285,3.199,1.83,4.907
		c-0.738,2.76-3.523,4.974-5.893,5.735c-3.371,1.081-8.023,1.208-10.268-1.07c-0.932-0.946-1.82-2.733-0.759-5.877
		c0.675-1.995,1.991-4.161,3.71-6.099c2.498-2.814,5.899-5.209,9.835-6.924c6.354-2.769,13.228-3.7,20.906-4.554
		C62.901,0.001,62.922,0,62.94,0"/>
	<path fill="#DFE6B7" d="M127.616,20.094c0,0-0.059-0.285-0.162-0.781c-0.096-0.501-0.258-1.202-0.459-2.03
		c-0.226-0.831-0.509-1.788-0.843-2.797c-0.351-1.004-0.754-2.06-1.247-3.064c-0.247-0.5-0.511-0.992-0.798-1.453
		c-0.288-0.453-0.573-0.898-0.848-1.33c-0.259-0.432-0.507-0.852-0.742-1.248c-0.246-0.383-0.47-0.761-0.7-1.088
		c-0.218-0.348-0.451-0.62-0.645-0.901c-0.215-0.261-0.404-0.489-0.558-0.677c-0.346-0.34-0.559-0.585-0.559-0.585l0.081-0.195
		c0,0,0.305,0.013,0.861,0.128c0.258,0.085,0.582,0.193,0.936,0.359c0.326,0.191,0.739,0.39,1.093,0.696
		c0.39,0.281,0.752,0.637,1.117,1.033c0.357,0.396,0.707,0.846,0.994,1.343c0.297,0.494,0.532,1.038,0.745,1.598
		c0.203,0.562,0.416,1.123,0.59,1.697c0.374,1.136,0.643,2.292,0.86,3.376c0.218,1.084,0.324,2.11,0.401,2.983
		c0.051,0.884,0.104,1.61,0.091,2.116c0,0.508,0,0.799,0,0.799L127.616,20.094z"/>
	<path fill="#DFE6B7" d="M127.368,30.665c0,0-0.109,0.331-0.299,0.909c-0.096,0.289-0.2,0.642-0.373,1.036
		c-0.168,0.394-0.334,0.854-0.561,1.334c-0.234,0.472-0.455,1.005-0.756,1.535c-0.292,0.533-0.607,1.096-0.988,1.646
		c-0.352,0.567-0.772,1.117-1.199,1.68c-0.446,0.546-0.903,1.106-1.415,1.619l-0.762,0.776c-0.271,0.244-0.54,0.486-0.807,0.728
		c-0.549,0.467-1.111,0.918-1.718,1.259c-1.195,0.715-2.484,1.072-3.577,1.255c-0.558,0.062-1.059,0.132-1.514,0.101
		c-0.454-0.026-0.839-0.02-1.159-0.101c-0.637-0.122-0.98-0.23-0.98-0.23L111.262,44c0,0,0.349-0.137,0.926-0.313
		c0.289-0.07,0.628-0.232,1.012-0.361c0.39-0.111,0.801-0.341,1.256-0.508c0.23-0.081,0.453-0.22,0.69-0.332
		c0.236-0.114,0.488-0.205,0.726-0.354c0.243-0.143,0.492-0.274,0.752-0.404c0.253-0.146,0.511-0.294,0.772-0.444
		c0.536-0.281,1.075-0.612,1.632-0.939c0.552-0.342,1.087-0.73,1.602-1.154c0.521-0.415,1.001-0.883,1.473-1.344
		c0.459-0.478,0.914-0.949,1.308-1.447c0.423-0.476,0.769-0.985,1.128-1.449c0.36-0.463,0.644-0.941,0.94-1.364
		c0.284-0.428,0.504-0.841,0.723-1.199c0.221-0.355,0.379-0.692,0.526-0.959c0.284-0.539,0.448-0.846,0.448-0.846L127.368,30.665z"
		/>
	<path fill="#DFE6B7" d="M166.393,0h80.514c0.291,0,0.527,0.234,0.527,0.526c0,0.292-0.236,0.527-0.527,0.527h-80.514
		c-0.291,0-0.525-0.236-0.525-0.527C165.867,0.234,166.102,0,166.393,0"/>
	<path fill="#DFE6B7" d="M246.291,0c3.758,0,6.209,0.834,8.463,2.88c1.91,1.737,3.121,4.698,1.738,6.996
		c-1.285,2.14-4.189,2.539-6.256,1.688c-1.082-0.446-1.885-1.161-2.26-2.015c-0.49-1.108-0.16-2.458,0.746-3.071
		c0.24-0.166,0.57-0.099,0.732,0.14c0.164,0.241,0.1,0.569-0.141,0.731c-0.549,0.373-0.621,1.211-0.373,1.775
		c0.357,0.813,1.217,1.266,1.697,1.463c1.615,0.668,3.971,0.377,4.951-1.255c1.078-1.792,0.006-4.259-1.547-5.672
		c-2.064-1.877-4.238-2.607-7.752-2.607c-0.293,0-0.527-0.236-0.527-0.527C245.764,0.234,245.998,0,246.291,0"/>
	<path fill="#DFE6B7" d="M166.393,0c0.293,0,0.527,0.234,0.527,0.526c0,0.292-0.234,0.527-0.527,0.527
		c-12.361,0-20.031,2.593-27.35,9.243c-5.688,5.167-9.551,14.276-5.52,20.979c3.699,6.154,12.48,7.293,18.498,4.814
		c3.139-1.294,5.441-3.307,6.48-5.666c1.078-2.451,0.727-5.976-1.729-7.632c-0.242-0.164-0.305-0.49-0.143-0.732
		c0.162-0.241,0.488-0.303,0.73-0.141c2.912,1.965,3.357,6.084,2.105,8.93c-1.148,2.612-3.65,4.819-7.045,6.218
		c-6.561,2.7-15.758,1.478-19.803-5.246c-4.368-7.263-0.432-16.717,5.715-22.302C145.771,2.757,153.9,0,166.393,0"/>
	<path fill="#DFE6B7" d="M166.227,4.652c1.188,0,2.283,0.038,3.258,0.097c0.291,0.017,0.512,0.267,0.496,0.557
		c-0.018,0.291-0.26,0.518-0.559,0.495c-6.482-0.383-18.496,0.081-26.063,7.509c-1.922,1.889-3.488,4.231-4.529,6.777
		c-1.135,2.779-1.41,4.887-0.953,7.277c0.625,3.27,3.82,6.05,7.594,6.616c2.158,0.325,4.244-0.033,5.873-1.008
		c1.789-1.07,2.969-2.906,3.082-4.791c0.018-0.289,0.27-0.5,0.557-0.494c0.291,0.017,0.512,0.267,0.496,0.557
		c-0.135,2.228-1.512,4.386-3.594,5.633c-1.836,1.098-4.168,1.506-6.57,1.145c-4.271-0.64-7.754-3.708-8.473-7.461
		c-0.492-2.573-0.189-4.928,1.014-7.873c1.092-2.677,2.742-5.145,4.766-7.132C149.326,5.973,159.307,4.652,166.227,4.652"/>
	<path fill="#DFE6B7" d="M172.957,4.703c-0.68,0-0.68,1.055,0,1.055S173.637,4.703,172.957,4.703"/>
	<path fill="#DFE6B7" d="M175.801,4.703c-0.68,0-0.68,1.055,0,1.055C176.479,5.758,176.482,4.703,175.801,4.703"/>
	<path fill="#DFE6B7" d="M178.863,4.813c-0.678,0-0.68,1.054,0,1.054S179.545,4.813,178.863,4.813"/>
	<path fill="#DFE6B7" d="M194.146,0c0.02,0,0.041,0.001,0.059,0.003c7.678,0.854,14.551,1.785,20.906,4.554
		c3.936,1.715,7.338,4.11,9.834,6.924c1.719,1.938,3.035,4.103,3.709,6.099c1.061,3.144,0.174,4.931-0.758,5.877
		c-2.246,2.28-6.896,2.151-10.268,1.07c-2.369-0.762-5.154-2.976-5.891-5.735c-0.457-1.708,0.313-3.772,1.83-4.907
		c1.299-0.973,2.82-1.062,4.172-0.239c0.248,0.151,0.326,0.476,0.176,0.724s-0.475,0.329-0.725,0.177
		c-1.316-0.802-2.439-0.23-2.99,0.182c-1.188,0.888-1.793,2.484-1.443,3.793c0.633,2.369,3.148,4.344,5.193,5.001
		c3.17,1.018,7.348,1.069,9.195-0.807c1.053-1.068,1.225-2.683,0.51-4.798c-0.631-1.865-1.871-3.902-3.5-5.735
		c-2.396-2.701-5.67-5.003-9.465-6.658c-6.221-2.709-13.012-3.628-20.602-4.472c-0.289-0.034-0.498-0.294-0.465-0.583
		C193.654,0.199,193.883,0,194.146,0"/>
	<path fill="#DFE6B7" d="M129.262,20.071c0,0,0-0.29,0.002-0.797c-0.016-0.506,0.037-1.232,0.09-2.117
		c0.074-0.874,0.182-1.898,0.398-2.983c0.219-1.083,0.486-2.24,0.861-3.377c0.172-0.572,0.385-1.135,0.59-1.697
		c0.213-0.558,0.449-1.102,0.746-1.598c0.285-0.498,0.637-0.945,0.994-1.343c0.365-0.396,0.729-0.752,1.115-1.032
		c0.355-0.307,0.766-0.505,1.094-0.696c0.354-0.167,0.678-0.274,0.938-0.36c0.555-0.114,0.859-0.127,0.859-0.127l0.082,0.195
		c0,0-0.213,0.245-0.559,0.584c-0.154,0.188-0.344,0.417-0.559,0.679c-0.195,0.282-0.428,0.554-0.643,0.901
		c-0.232,0.326-0.457,0.703-0.701,1.088c-0.236,0.396-0.486,0.813-0.742,1.247c-0.275,0.432-0.561,0.877-0.85,1.33
		c-0.287,0.463-0.549,0.953-0.797,1.453c-0.494,1.004-0.896,2.061-1.246,3.063c-0.334,1.009-0.617,1.967-0.844,2.797
		c-0.199,0.828-0.361,1.53-0.459,2.031c-0.104,0.497-0.162,0.78-0.162,0.78L129.262,20.071z"/>
	<path fill="#DFE6B7" d="M129.912,30.582c0,0,0.164,0.307,0.449,0.846c0.146,0.267,0.305,0.604,0.525,0.958
		c0.219,0.359,0.439,0.771,0.723,1.2c0.297,0.423,0.58,0.901,0.941,1.363c0.359,0.464,0.705,0.973,1.127,1.449
		c0.395,0.498,0.85,0.969,1.307,1.447c0.473,0.461,0.953,0.929,1.475,1.344c0.514,0.424,1.049,0.812,1.602,1.154
		c0.557,0.327,1.094,0.659,1.629,0.939c0.264,0.15,0.521,0.299,0.773,0.444c0.26,0.13,0.512,0.262,0.752,0.404
		c0.238,0.149,0.49,0.241,0.729,0.354c0.234,0.111,0.459,0.251,0.688,0.331c0.457,0.168,0.867,0.397,1.256,0.509
		c0.387,0.129,0.725,0.291,1.014,0.363c0.576,0.173,0.924,0.312,0.924,0.312l0.004,0.21c0,0-0.346,0.109-0.982,0.231
		c-0.32,0.081-0.703,0.074-1.158,0.101c-0.457,0.032-0.959-0.039-1.514-0.101c-1.092-0.184-2.383-0.541-3.578-1.255
		c-0.605-0.342-1.17-0.792-1.717-1.259c-0.268-0.242-0.537-0.484-0.807-0.729l-0.764-0.775c-0.51-0.513-0.969-1.072-1.412-1.619
		c-0.428-0.562-0.848-1.113-1.201-1.68c-0.381-0.55-0.697-1.112-0.986-1.646c-0.303-0.53-0.523-1.063-0.76-1.535
		c-0.225-0.479-0.393-0.94-0.559-1.334c-0.172-0.394-0.277-0.747-0.373-1.036c-0.191-0.579-0.299-0.91-0.299-0.91L129.912,30.582z"
		/>
	<circle fill="#DFE6B7" cx="128.544" cy="45.602" r="5.339"/>
</g>
</svg>
