<?xml version="1.0" encoding="utf-8"?>
<!-- Generator: Adobe Illustrator 15.0.2, SVG Export Plug-In . SVG Version: 6.00 Build 0)  -->
<!DOCTYPE svg PUBLIC "-//W3C//DTD SVG 1.1//EN" "http://www.w3.org/Graphics/SVG/1.1/DTD/svg11.dtd">
<svg version="1.1" id="Capa_1" xmlns="http://www.w3.org/2000/svg" xmlns:xlink="http://www.w3.org/1999/xlink" x="0px" y="0px"
	 width="64px" height="64px" viewBox="0 0 64 64" enable-background="new 0 0 64 64" xml:space="preserve" fill="#fff">
<path d="M5.747,25.048c0,4.914,2.228,7.726,4.418,10.35c0.083,2.626,0.225,4.38-0.873,8.357c4.589-1.465,5.349-2.042,7.896-3.608
	c2.624,0.64,3.87,1.002,6.855,1.292c-0.25,1.857-0.215,3.345,0.145,5.311c-1.975-0.158-4.015-0.472-6.118-0.983
	c-3.668,2.252-11.764,4.526-17.455,5.553c2.13-4.189,4.483-9.936,4.36-13.946C2.115,33.948,0.5,29.537,0.5,25.048
	C0.496,12.377,12.888,3.124,26.749,3.124c13.747,0,26.192,9.146,26.246,21.836c-1.688-0.462-3.471-0.728-5.305-0.826
	c-0.602-8.767-9.746-15.76-20.941-15.76C15.168,8.374,5.747,15.854,5.747,25.048z M60.566,51.743
	c-0.073,2.627,1.465,6.391,2.858,9.133c-3.726-0.677-9.026-2.163-11.426-3.636c-2.026,0.492-3.976,0.719-5.809,0.719
	c-10.147,0-17.059-6.938-17.059-14.285c0-8.332,8.165-14.35,17.186-14.35c9.073,0,17.183,6.06,17.183,14.35
	C63.5,46.612,62.44,49.504,60.566,51.743z M40.711,43.813c0-1.189-0.963-2.153-2.151-2.153c-1.186,0-2.149,0.964-2.149,2.153
	c0,1.188,0.964,2.153,2.149,2.153C39.748,45.966,40.711,45.001,40.711,43.813z M48.588,43.813c0-1.189-0.965-2.153-2.151-2.153
	c-1.186,0-2.151,0.964-2.151,2.153c0,1.188,0.966,2.153,2.151,2.153C47.623,45.966,48.588,45.001,48.588,43.813z M56.463,43.813
	c0-1.189-0.963-2.153-2.149-2.153c-1.188,0-2.151,0.964-2.151,2.153c0,1.188,0.964,2.153,2.151,2.153
	C55.5,45.966,56.463,45.001,56.463,43.813z"/>
</svg>
