<?xml version="1.0" encoding="utf-8"?>
<!-- Generator: Adobe Illustrator 15.0.2, SVG Export Plug-In . SVG Version: 6.00 Build 0)  -->
<!DOCTYPE svg PUBLIC "-//W3C//DTD SVG 1.1//EN" "http://www.w3.org/Graphics/SVG/1.1/DTD/svg11.dtd">
<svg version="1.1" id="Capa_1" xmlns="http://www.w3.org/2000/svg" xmlns:xlink="http://www.w3.org/1999/xlink" x="0px" y="0px"
	 width="64px" height="64px" viewBox="0 0 64 64" enable-background="new 0 0 64 64" xml:space="preserve" fill="#DEE6B5">
<g>
	<g>
		<path d="M62.816,33.055c-0.802-1.192-2.231-1.904-3.815-1.904h-7.718c0.078-1.163,0.109-2.126,0.121-2.819
			c0.004-0.658-0.541-1.191-1.199-1.191H2.271c-0.658,0-1.207,0.533-1.199,1.191c0.07,5.144,1.39,25.431,17.833,30.371H3.5
			c-0.973,0-2.056,0.736-2.406,1.646l-0.479,1.236C0.257,62.492,0.76,63.23,1.733,63.23h49.001c0.978,0,1.476-0.738,1.125-1.646
			l-0.486-1.236c-0.351-0.909-1.429-1.646-2.406-1.646H34.314c5.588-1.748,9.353-5.416,11.888-9.664
			c10.614-0.3,15.182-7.639,16.965-12.063C63.712,35.621,63.583,34.189,62.816,33.055z M59.85,35.645
			c-1.616,4.021-4.961,8.72-11.763,9.668c1.542-3.652,2.371-7.43,2.814-10.589h8.1c0.467,0,0.751,0.169,0.856,0.333
			C59.954,35.196,59.95,35.393,59.85,35.645z"/>
		<path d="M25.78,25.59c0.253,0.29,0.607,0.436,0.958,0.436c0.296,0,0.592-0.101,0.825-0.307c0.529-0.458,0.588-1.257,0.128-1.783
			c-0.03-0.04-3.379-3.998-1.227-6.707c2.87-3.614,1.122-6.564-0.206-7.619c-0.541-0.436-1.339-0.346-1.775,0.201
			c-0.429,0.543-0.343,1.333,0.194,1.768c0.304,0.263,1.726,1.664-0.194,4.08C21.026,20.009,25.589,25.364,25.78,25.59z"/>
		<path d="M32.543,3.013c0.538-0.437,0.623-1.225,0.191-1.768c-0.437-0.546-1.23-0.635-1.775-0.201
			c-1.324,1.054-3.072,4.004-0.203,7.62c2.153,2.708-1.199,6.669-1.23,6.706c-0.455,0.526-0.396,1.325,0.129,1.783
			c0.237,0.207,0.533,0.309,0.825,0.309c0.354,0,0.709-0.149,0.958-0.437c0.194-0.227,4.754-5.583,1.301-9.936
			C30.814,4.678,32.235,3.274,32.543,3.013z"/>
	</g>
</g>
</svg>
