<?xml version="1.0" encoding="utf-8"?>
<!-- Generator: Adobe Illustrator 15.0.2, SVG Export Plug-In . SVG Version: 6.00 Build 0)  -->
<!DOCTYPE svg PUBLIC "-//W3C//DTD SVG 1.1//EN" "http://www.w3.org/Graphics/SVG/1.1/DTD/svg11.dtd">
<svg version="1.1" id="Capa_1" xmlns="http://www.w3.org/2000/svg" xmlns:xlink="http://www.w3.org/1999/xlink" x="0px" y="0px"
	 width="64px" height="64px" viewBox="0 0 64 64" enable-background="new 0 0 64 64" xml:space="preserve" fill="#bcd7a2">
<path d="M32,5.749c14.476,0,26.249,11.775,26.249,26.251c0,14.472-11.773,26.25-26.249,26.25C17.524,58.25,5.751,46.473,5.751,32
	C5.751,17.524,17.524,5.749,32,5.749 M32,0.5C14.605,0.5,0.5,14.604,0.5,32c0,17.398,14.105,31.5,31.5,31.5
	c17.396,0,31.5-14.102,31.5-31.5C63.5,14.604,49.396,0.5,32,0.5 M43.813,45.938l-4.62-8.916l-2.707,1.326
	c-2.941,1.426-8.927-10.265-6.053-11.805l2.735-1.345l-4.584-8.949l-2.763,1.364c-9.455,4.928,5.555,34.104,15.224,29.686
	L43.813,45.938z"/>
</svg>
