<?xml version="1.0" encoding="utf-8"?>
<!-- Generator: Adobe Illustrator 16.0.0, SVG Export Plug-In . SVG Version: 6.00 Build 0)  -->
<!DOCTYPE svg PUBLIC "-//W3C//DTD SVG 1.1//EN" "http://www.w3.org/Graphics/SVG/1.1/DTD/svg11.dtd">
<svg version="1.1" id="Capa_1" xmlns="http://www.w3.org/2000/svg" xmlns:xlink="http://www.w3.org/1999/xlink" x="0px" y="0px"
	 width="162.485px" height="142.667px" viewBox="0 0 162.485 142.667" enable-background="new 0 0 162.485 142.667"
	 xml:space="preserve">
<g>
	<path fill="#0E5D36" d="M54.119,40.316l-18.037-0.578c0,0-1.605-0.145-1.605,1.112c0,1.259,3.254,0.955,3.254,0.955l15.826,0.216
		c0,0,1.126-0.043,1.648,0.868c0.52,0.91,1.518,2.038,3.121,2.038s2.428-1.258,3.252-1.085c0.823,0.174,0.605,0.91,0.649,1.994
		c0.043,1.085,1.431,12.792,3.556,18.429s7.068,12.703,9.93,14.352c2.861,1.647,3.252,0.26,1.17-2.862
		c-2.081-3.121-6.98-10.883-7.545-11.577c-0.563-0.694-0.865-1.257-0.215-1.907c0.65-0.651,2.34,1.95,2.947,3.165
		c0.607,1.214,5.334,8.411,5.334,8.411s1.061,1.583,1.864,0.78c0.801-0.803,0.347-1.474-0.782-3.382
		c-1.127-1.908-7.023-10.579-7.023-10.579s-0.411-1.278,0.174-1.865c0.586-0.586,2.299,1.778,2.991,2.992
		c0.695,1.214,5.464,7.544,5.464,7.544s0.89,1.193,1.561,0.521c0.672-0.672-0.087-1.127-1.083-2.645
		c-0.998-1.518-8.021-10.017-8.021-10.017s-1.366-1.365-0.651-2.08c0.717-0.716,1.952,0.433,3.6,2.428
		c1.648,1.994,6.412,6.504,6.412,6.504s0.979,1.322,1.826,0.476c0.844-0.845-0.824-2.038-1.777-3.079
		c-0.955-1.04-7.718-8.497-7.718-8.497s-1.409-1.409-0.825-1.995c0.586-0.586,1.518-0.13,3.469,1.735
		c1.951,1.863,6.157,6.286,6.157,6.286s2.082,1.344,2.169-0.303c0.087-1.648-1.821-2.818-2.169-3.079s-7.5-5.939-7.5-5.939
		s-1.647-0.521-0.825-2.43c0.825-1.907,3.989,1.215,5.159,2.169c1.172,0.954,1.647,1.561,1.735,2.167
		c0.087,0.606,0.694,1.561,2.211,1.648c1.518,0.086,1.214,0.261,1.692,0.781c0.476,0.52,2.34,3.251,2.34,3.251
		s0.521,0.521,0.521,1.865s0.216,4.596,0.216,4.596s0.261,1.474,0.91,1.474c0.651,0,0.91-0.478,0.91-1.518c0-1.041,0-2.775,0-2.775
		s0-0.867,0.563-0.867c0.565,0,0.869,0.651,0.869,1.865s0.043,4.596,1.517,4.596c1.476,0,0-2.602,0-3.989s-0.129-2.89,0.39-2.963
		c0.521-0.072,1.042,3.006,1.303,3.223c0.259,0.217-0.088-2.557,0-4.726c0.085-2.167-0.607-2.688,0.563-2.818
		c1.169-0.13,2.21-0.086,2.21-1.519c0-1.43-1.214-0.735-2.254-0.52c-1.04,0.217-4.77,1.171-5.724,1.171
		c-0.955,0-1.951-0.304-2.429-1.084c-0.476-0.781-1.475-0.824-1.518-1.647c-0.043-0.823-0.563-1.344-1.518-1.734
		c-0.953-0.391-2.862-1.041-2.99-1.604c-0.131-0.564-0.305-1.821,1.299-1.518c1.604,0.304,41.972,10.624,41.972,10.624
		s2.907,0.519,3.122-1.215c0.217-1.734-1.604-2.732-2.515-2.949c-0.91-0.217-30.048-4.986-30.048-4.986s-2.86,0-2.86-1.3
		c0-1.301,2.297-0.651,3.599-0.651c1.3,0,26.968,2.559,27.099,2.559c0.13,0,3.902,0.348,3.902-1.127
		c0-1.474-1.389-1.734-3.512-1.734c-2.125,0-26.363-0.954-26.363-0.954s-3.426-0.043-3.426-0.478s-0.128-0.824,5.378-0.824
		c5.507,0,24.67-0.65,24.801-0.65c0.13,0,2.602,0.217,2.602-1.301c0-1.517-2.124-1.474-3.338-1.474s-28.573,2.471-28.573,2.471
		s-1.822,0.434-1.822-0.347c0-0.78,0.867-1.127,2.471-1.127c1.604,0,26.061-2.775,26.581-2.775c0.519,0,4.075-0.174,4.075-1.822
		c0-1.646-2.429-1.04-4.683-0.953c-2.255,0.086-28.227,4.856-28.227,4.856s-1.302,0.346-1.302-0.608c0-0.953,1.474-0.91,3.078-1.258
		c1.604-0.346,27.359-5.289,27.359-5.289s3.123-0.173,3.123-1.952c0-1.776-3.988-1.041-5.16-0.693
		c-1.171,0.348-1.171,0.348-1.171,0.348L87.81,38.25c0,0-4.77,0.954-5.724,0.563c-0.953-0.39-0.823-0.694,0.435-1.604
		c1.258-0.912,1.82-1.649,2.124-1.691c0.304-0.043,2.255,0,2.515-1.171s0.823-1.865,1.648-2.559
		c0.822-0.693,1.171-1.345,1.906-1.171c0.738,0.174,3.253,2.385,4.64,2.255c1.388-0.13,2.733-0.954,2.603-1.604
		c-0.131-0.651-0.78-0.9-2.037-0.927c-1.259-0.028-2.17-0.634-0.608-1.762c1.562-1.127,1.562-1.127,1.562-1.127
		s1.994-1.864,2.037-2.731c0.044-0.867-1.604-0.78-2.427,0c-0.824,0.78-0.824,0.78-0.824,0.78s1.561-1.865,1.256-3.295
		c-0.303-1.432-2.254,0.737-2.947,2.081c0,0-0.305-2.631-1.345-2.551c-1.04,0.079-0.953,2.16-1.257,3.635
		c-0.305,1.474-0.911,2.471-1.994,3.686c-1.084,1.213-1.952,1.865-2.516,2.341c-0.564,0.477-1.257,0.52-1.865,0.563
		c-0.606,0.043-1.647,0.608-1.906,1.301c-0.26,0.694-0.435,1.387-0.954,1.907c-0.521,0.521-3.47,2.429-5.94,3.252
		c-2.471,0.825-3.815-0.087-2.731-2.514c1.083-2.429,9.495-13.79,9.495-13.79s1.605-2.86-0.52-4.378
		c-2.124-1.517-3.252,1.734-4.336,3.815c-1.086,2.08-5.074,10.84-5.074,10.84s-0.91,1.951-1.949,1.431
		c-1.041-0.521-0.131-2.774,0.52-4.336c0.65-1.561,5.029-11.837,5.029-11.837s1.518-2.905,0-3.469s-2.297,2.255-2.861,3.816
		c-0.564,1.56-3.771,10.536-3.771,10.536s-0.348,1.951-1.518,1.865c-1.172-0.087,0.216-6.071,0.736-8.932
		c0.521-2.862,1.777-11.707,1.777-11.707s0.521-2.385-0.564-2.385c-1.084,0-1.299,1.04-1.82,4.031
		c-0.521,2.992-1.43,12.271-1.43,12.271s-0.088,1.691-1.127,1.562c-1.043-0.13-0.392-3.209-0.305-4.813
		c0.086-1.604,1.388-14.438,1.388-14.438s0.563-2.688-1.214-2.688c-1.778,0-1.344,3.121-1.344,4.076
		c0,0.953-0.955,10.232-0.955,10.232s-0.131,1.431-1.127,1.431c-0.997,0-0.607-1.692-0.607-2.515c0-0.824,1.648-13.832,1.648-13.832
		s0.78-2.602-0.607-2.602c-1.387,0-1.518,0.303-1.69,2.559c-0.175,2.255-1.041,18.818-1.345,20.855
		c-0.304,2.038,0.434,4.25,0.996,6.071c0.564,1.821,0.262,5.94,0.262,7.674c0,1.735,0,2.906,0,2.906s-1.127-1.388-2.689-1.433
		C56.896,38.684,55.591,40.364,54.119,40.316z"/>
	<g>
		<path fill="#0E5D36" d="M18.487,87.008l-1.432,1.055c-0.897-1.172-1.951-2.072-3.16-2.699c-1.208-0.626-2.447-0.94-3.717-0.94
			c-1.423,0-2.789,0.382-4.1,1.146c-1.309,0.764-2.338,1.779-3.086,3.044c-0.748,1.266-1.122,2.622-1.122,4.069
			c0,1.965,0.702,3.637,2.104,5.015s3.111,2.068,5.124,2.068c1.204,0,2.36-0.247,3.469-0.74c1.107-0.493,2.005-1.148,2.692-1.965
			c0.688-0.817,1.188-1.827,1.504-3.032h-6.537v-1.758h8.684c-0.178,2.733-1.158,4.948-2.941,6.646
			c-1.782,1.698-4.004,2.547-6.664,2.547c-2.732,0-4.952-0.829-6.658-2.486c-1.706-1.657-2.559-3.739-2.559-6.246
			c0-1.787,0.448-3.454,1.346-5.002s2.133-2.77,3.705-3.663c1.572-0.894,3.269-1.34,5.088-1.34
			C13.519,82.727,16.271,84.154,18.487,87.008z"/>
		<path fill="#0E5D36" d="M34.325,101.016h-1.71l0.261-1.984c-1.524,1.549-3.27,2.323-5.234,2.323c-1.787,0-3.257-0.578-4.408-1.734
			s-1.727-2.644-1.727-4.463c0-2.102,0.75-3.907,2.252-5.415c1.501-1.508,3.268-2.262,5.299-2.262c1.101,0,2.065,0.23,2.895,0.69
			c0.83,0.46,1.527,1.179,2.094,2.155l0.305-2.506h1.76L34.325,101.016z M27.831,99.803c1.088,0,2.078-0.257,2.973-0.771
			c0.895-0.514,1.604-1.252,2.127-2.215s0.785-2.011,0.785-3.144c0-1.365-0.432-2.476-1.293-3.332
			c-0.861-0.856-1.981-1.285-3.359-1.285c-1.619,0-3.004,0.586-4.156,1.759c-1.151,1.172-1.727,2.612-1.727,4.317
			c0,1.399,0.431,2.527,1.293,3.384C25.335,99.375,26.454,99.803,27.831,99.803z"/>
		<path fill="#0E5D36" d="M39.349,87.821h1.701l-0.229,1.661c0.453-0.63,0.999-1.121,1.64-1.473
			c0.639-0.352,1.295-0.527,1.967-0.527c0.478,0,0.976,0.113,1.494,0.339l-0.801,1.552c-0.42-0.169-0.771-0.254-1.054-0.254
			c-0.589,0-1.173,0.206-1.749,0.619c-0.578,0.413-1.046,1.013-1.405,1.801c-0.359,0.789-0.663,2.085-0.912,3.888l-0.771,5.589
			h-1.665L39.349,87.821z"/>
		<path fill="#0E5D36" d="M58.8,101.016h-1.711l0.271-2.045c-1.564,1.59-3.325,2.384-5.281,2.384c-1.781,0-3.244-0.578-4.391-1.734
			s-1.72-2.644-1.72-4.463c0-2.102,0.747-3.907,2.243-5.415c1.495-1.508,3.255-2.262,5.278-2.262c1.097,0,2.058,0.23,2.884,0.691
			s1.537,1.181,2.132,2.159l1.009-7.605h1.76L58.8,101.016z M52.302,99.803c1.09,0,2.082-0.256,2.978-0.77s1.606-1.25,2.13-2.212
			c0.525-0.961,0.787-2.008,0.787-3.14c0-1.367-0.432-2.479-1.295-3.337c-0.863-0.857-1.984-1.287-3.365-1.287
			c-1.621,0-3.01,0.586-4.163,1.759s-1.73,2.612-1.73,4.317c0,1.399,0.432,2.527,1.295,3.384
			C49.801,99.375,50.923,99.803,52.302,99.803z"/>
		<path fill="#0E5D36" d="M76.374,94.758H64.609c-0.024,1.569,0.384,2.802,1.226,3.699c0.84,0.897,1.96,1.346,3.359,1.346
			c0.93,0,1.791-0.19,2.583-0.57s1.447-0.914,1.964-1.601l1.262,1.031c-0.639,0.817-1.473,1.47-2.504,1.959
			c-1.031,0.489-2.145,0.733-3.342,0.733c-2.07,0-3.624-0.641-4.663-1.922c-1.039-1.282-1.558-2.723-1.558-4.324
			c0-1.31,0.35-2.571,1.049-3.784s1.635-2.157,2.807-2.832c1.173-0.675,2.442-1.013,3.809-1.013c1.689,0,3.089,0.572,4.196,1.716
			c1.108,1.144,1.661,2.602,1.661,4.372C76.458,93.893,76.431,94.289,76.374,94.758z M74.821,93.278
			c-0.049-1.241-0.473-2.247-1.273-3.017s-1.807-1.155-3.02-1.155c-1.318,0-2.48,0.371-3.487,1.112s-1.72,1.762-2.141,3.06H74.821z"
			/>
		<path fill="#0E5D36" d="M80.657,87.821h1.627l-0.271,2.053c1.342-1.595,2.902-2.392,4.683-2.392c1.365,0,2.467,0.418,3.305,1.254
			c0.837,0.837,1.256,1.962,1.256,3.376c0,0.566-0.091,1.516-0.271,2.852l-0.818,6.052h-1.664l0.818-6.051
			c0.175-1.294,0.263-2.249,0.263-2.866c0-0.924-0.28-1.67-0.84-2.238c-0.561-0.567-1.296-0.852-2.205-0.852
			c-0.893,0-1.723,0.23-2.49,0.691c-0.767,0.461-1.361,1.085-1.784,1.874c-0.422,0.788-0.746,2.035-0.972,3.74l-0.756,5.702h-1.664
			L80.657,87.821z"/>
		<path fill="#0E5D36" d="M103.395,83.176h1.759l-0.977,7.252h9.146l0.985-7.252h1.735l-2.413,17.84h-1.747l1.21-8.902h-9.168
			l-1.173,8.902h-1.771L103.395,83.176z"/>
		<path fill="#0E5D36" d="M125.613,87.481c1.124,0,2.154,0.269,3.093,0.806c0.938,0.538,1.669,1.286,2.195,2.244
			c0.525,0.958,0.788,2.044,0.788,3.256c0,1.383-0.336,2.667-1.007,3.851s-1.572,2.1-2.704,2.747
			c-1.133,0.647-2.414,0.97-3.845,0.97c-1.771,0-3.229-0.58-4.372-1.74c-1.145-1.16-1.717-2.638-1.717-4.433
			c0-1.407,0.336-2.705,1.007-3.893s1.591-2.121,2.76-2.795C122.979,87.819,124.247,87.481,125.613,87.481z M125.571,89.094
			c-1.052,0-2.042,0.263-2.969,0.788c-0.927,0.526-1.639,1.248-2.137,2.165c-0.498,0.918-0.747,1.931-0.747,3.038
			c0,1.391,0.43,2.521,1.287,3.39c0.858,0.87,1.968,1.304,3.327,1.304c1.061,0,2.021-0.252,2.884-0.758s1.548-1.235,2.059-2.189
			c0.51-0.954,0.765-1.977,0.765-3.068c0-0.914-0.19-1.724-0.57-2.432c-0.381-0.708-0.919-1.257-1.615-1.649
			S126.397,89.094,125.571,89.094z"/>
		<path fill="#0E5D36" d="M137.999,82.885h1.661l-0.657,4.936h2.656l-0.193,1.479h-2.66l-1.561,11.716h-1.698l1.585-11.716h-2.264
			l0.206-1.479h2.258L137.999,82.885z"/>
		<path fill="#0E5D36" d="M156.188,94.758h-11.765c-0.024,1.569,0.384,2.802,1.225,3.699s1.961,1.346,3.36,1.346
			c0.93,0,1.79-0.19,2.583-0.57c0.792-0.38,1.447-0.914,1.965-1.601l1.261,1.031c-0.639,0.817-1.474,1.47-2.504,1.959
			c-1.031,0.489-2.145,0.733-3.342,0.733c-2.069,0-3.624-0.641-4.663-1.922c-1.039-1.282-1.559-2.723-1.559-4.324
			c0-1.31,0.35-2.571,1.05-3.784c0.699-1.213,1.635-2.157,2.808-2.832c1.172-0.675,2.441-1.013,3.808-1.013
			c1.69,0,3.089,0.572,4.196,1.716s1.662,2.602,1.662,4.372C156.273,93.893,156.245,94.289,156.188,94.758z M154.636,93.278
			c-0.049-1.241-0.473-2.247-1.273-3.017s-1.807-1.155-3.02-1.155c-1.318,0-2.48,0.371-3.487,1.112s-1.72,1.762-2.141,3.06H154.636z
			"/>
		<path fill="#0E5D36" d="M160.833,82.727h1.652l-2.462,18.289h-1.664L160.833,82.727z"/>
	</g>
</g>
<g>
	<polygon fill="#BCD7A2" points="70.816,131.262 72.641,134.955 76.717,135.547 73.768,138.422 74.463,142.482 70.816,140.566 
		67.172,142.482 67.867,138.422 64.918,135.547 68.994,134.955 	"/>
	<polygon fill="#BCD7A2" points="91.464,131.262 93.287,134.955 97.363,135.547 94.414,138.422 95.111,142.482 91.464,140.566 
		87.818,142.482 88.515,138.422 85.564,135.547 89.642,134.955 	"/>
	<polygon fill="#BCD7A2" points="110.637,127.574 112.46,131.269 116.535,131.86 113.585,134.735 114.281,138.796 110.637,136.879 
		106.99,138.796 107.687,134.735 104.736,131.86 108.813,131.269 	"/>
	<polygon fill="#BCD7A2" points="51.646,127.574 53.47,131.269 57.544,131.86 54.595,134.735 55.291,138.796 51.646,136.879 
		48,138.796 48.695,134.735 45.746,131.86 49.823,131.269 	"/>
</g>
</svg>
